<svg xmlns="http://www.w3.org/2000/svg" width="108" height="36" viewBox="0 0 108 36" fill="none">
  <mask id="mask0_1_81" style="mask-type:luminance" maskUnits="userSpaceOnUse" x="0" y="0" width="108" height="36">
    <path d="M107.945 0.315958H0.222198V35.8715H107.945V0.315958Z" fill="white"/>
  </mask>
  <g mask="url(#mask0_1_81)">
    <path d="M41.8794 16.4531C41.8966 15.9352 42.3846 15.5036 42.9411 15.5036C43.4976 15.5036 44.0028 15.9179 44.0028 16.4531V21.857C44.0028 22.3922 43.5147 22.8065 42.9411 22.8065C42.3674 22.8065 41.8966 22.3749 41.8794 21.857V21.7188C41.4257 22.4699 40.561 22.8669 39.7562 22.8669C37.9496 22.8669 36.3058 21.5203 36.3058 19.1464C36.3058 16.7725 37.9496 15.4431 39.7562 15.4431C40.2099 15.4431 41.2801 15.6417 41.8794 16.5912V16.4531ZM40.1671 20.9764C41.126 20.9764 41.8966 20.1219 41.8966 19.1723C41.8966 18.2227 41.1174 17.3682 40.1671 17.3682C39.1054 17.3682 38.4976 18.2227 38.4976 19.1723C38.4976 20.1219 39.1054 20.9764 40.1671 20.9764Z" fill="#002A3C"/>
    <path d="M46.8627 11.6881C47.5729 11.6881 48.1551 12.2233 48.1551 12.9312C48.1551 13.639 47.5818 14.1915 46.8627 14.1915C46.1431 14.1915 45.544 13.639 45.544 12.9312C45.544 12.2233 46.152 11.6881 46.8627 11.6881ZM47.9329 21.8656C47.9329 22.4008 47.4445 22.8151 46.8711 22.8151C46.2973 22.8151 45.8267 22.3835 45.8093 21.8656V16.4618C45.8267 15.9439 46.3147 15.5122 46.8711 15.5122C47.4276 15.5122 47.9329 15.9266 47.9329 16.4618V21.8656Z" fill="#002A3C"/>
    <path d="M51.3418 22.2886C51.3418 22.5821 51.1276 22.8065 50.8365 22.8065C50.5454 22.8065 50.34 22.5734 50.34 22.2886V12.1457C50.34 11.8522 50.5543 11.6277 50.8365 11.6277C51.1191 11.6277 51.3418 11.8608 51.3418 12.1457V16.7553C51.8725 15.8489 52.9858 15.4259 54.0129 15.4259C56.0338 15.4259 57.6431 16.8675 57.6431 19.1292C57.6431 21.3908 56.0338 22.8842 54.0129 22.8842C52.9769 22.8842 51.8725 22.4094 51.3418 21.503V22.2886ZM54.0214 16.4532C52.7458 16.4532 51.3503 17.3682 51.3503 19.1378C51.3503 20.9074 52.5831 21.8656 54.0214 21.8656C55.46 21.8656 56.6329 20.7348 56.6329 19.1378C56.6329 17.5408 55.4942 16.4532 54.0214 16.4532Z" fill="#002A3C"/>
    <path d="M62.1981 16.4532C60.751 16.4532 60.1603 18.171 60.1603 20.0701V22.2886C60.1603 22.5821 59.9461 22.8065 59.655 22.8065C59.3639 22.8065 59.1586 22.5734 59.1586 22.2886V16.0215C59.1586 15.7281 59.3728 15.5036 59.655 15.5036C59.9377 15.5036 60.1603 15.7367 60.1603 16.0215V17.2042C60.5115 15.9784 61.1621 15.4259 62.1981 15.4259C62.5061 15.4259 62.8057 15.4691 63.0626 15.5641C63.3368 15.659 63.4737 15.9352 63.3795 16.2115C63.2852 16.4877 63.0026 16.5654 62.7288 16.5136C62.5319 16.479 62.335 16.4532 62.1981 16.4532Z" fill="#002A3C"/>
    <path d="M64.0216 19.1378C64.0216 16.8675 65.7083 15.4346 67.7287 15.4346C69.7492 15.4346 71.4359 16.8762 71.4359 19.1378C71.4359 21.3995 69.7492 22.8929 67.7287 22.8929C65.7083 22.8929 64.0216 21.4081 64.0216 19.1378ZM70.4341 19.1378C70.4341 17.4804 69.2012 16.4445 67.7287 16.4445C66.2563 16.4445 65.0234 17.4891 65.0234 19.1378C65.0234 20.7866 66.2563 21.8829 67.7287 21.8829C69.2012 21.8829 70.4341 20.7952 70.4341 19.1378Z" fill="#002A3C"/>
    <path d="M75.4599 21.1146L77.3266 16.0302C77.4634 15.6762 77.6777 15.5122 78.0114 15.5122H78.0883C78.4226 15.5122 78.6194 15.6849 78.7563 16.0302L80.6399 21.1146L82.5834 15.8748C82.6777 15.5813 82.9346 15.4604 83.2083 15.5208C83.4826 15.5813 83.6195 15.892 83.5252 16.1683L81.2306 22.3749C81.1279 22.6684 80.9137 22.8152 80.6657 22.8152H80.6315C80.3746 22.8152 80.1946 22.6598 80.0834 22.3749L78.0283 16.997L76.0421 22.3749C75.9394 22.6684 75.751 22.8152 75.4941 22.8152H75.4599C75.2203 22.8152 75.0061 22.6598 74.895 22.3749L72.5403 16.1683C72.4461 15.892 72.5834 15.5899 72.8572 15.5208C73.1314 15.4518 73.3879 15.5813 73.4821 15.8748L75.443 21.1146H75.4599Z" fill="#002A3C"/>
    <path d="M85.0321 20.6225C85.3063 20.5621 85.5201 20.7434 85.6058 21.0024C85.7858 21.4599 86.1965 21.9174 87.1725 21.9174C88.0889 21.9174 88.6796 21.4599 88.6796 20.7865C88.6796 20.3118 88.4054 19.8715 87.6605 19.6816L86.6761 19.4485C85.7943 19.2328 84.6983 18.7925 84.8867 17.1178C85.0409 16.0906 86.0423 15.4173 87.1983 15.4173C88.1143 15.4173 88.9449 15.7971 89.2961 16.7035C89.3903 16.9624 89.2361 17.256 88.9618 17.3336C88.6281 17.4286 88.4738 17.23 88.3369 16.9797C88.1232 16.5999 87.7889 16.4013 87.1983 16.4013C86.5134 16.4013 85.9485 16.7725 85.8796 17.2732C85.7258 18.1019 86.4276 18.3436 86.9245 18.4644L87.9005 18.6975C89.2361 19.0169 89.6898 19.8024 89.6898 20.7779C89.6898 22.021 88.5681 22.8756 87.0872 22.8756C86.0512 22.8756 85.0236 22.2627 84.6983 21.2095C84.6214 20.9333 84.7752 20.6743 85.0321 20.6139V20.6225Z" fill="#002A3C"/>
    <path d="M94.6981 22.8929C92.6777 22.8929 91.111 21.4081 91.111 19.1378C91.111 16.8675 92.6777 15.4346 94.6981 15.4346C96.719 15.4346 98.1741 16.8762 98.1741 19.1378C98.1741 19.414 97.943 19.6126 97.7034 19.6126H92.1381C92.3181 21.011 93.371 21.8829 94.6897 21.8829C95.6741 21.8829 96.2563 21.5031 96.7532 20.8988C96.9328 20.6657 97.207 20.5449 97.455 20.7175C97.695 20.8729 97.7634 21.1751 97.6092 21.4254C96.967 22.3577 95.8968 22.8929 94.6897 22.8929H94.6981ZM97.147 18.6631C96.9501 17.2991 96.0083 16.4445 94.6981 16.4445C93.3883 16.4445 92.3439 17.2991 92.147 18.6631H97.147Z" fill="#002A3C"/>
    <path d="M103.037 16.4532C101.591 16.4532 100.999 18.171 100.999 20.0701V22.2886C100.999 22.5821 100.786 22.8065 100.495 22.8065C100.203 22.8065 99.9981 22.5734 99.9981 22.2886V16.0215C99.9981 15.7281 100.212 15.5036 100.495 15.5036C100.777 15.5036 100.999 15.7367 100.999 16.0215V17.2042C101.351 15.9784 102.001 15.4259 103.037 15.4259C103.346 15.4259 103.645 15.4691 103.902 15.5641C104.176 15.659 104.313 15.9352 104.219 16.2115C104.125 16.4877 103.842 16.5654 103.568 16.5136C103.371 16.479 103.175 16.4532 103.037 16.4532Z" fill="#002A3C"/>
    <path d="M31.0165 16.0086C31.0165 7.36529 24.1636 0.362581 15.7073 0.362581C12.8024 0.362581 10.0871 1.19151 7.76828 2.62486C8.1217 2.59896 8.47512 2.58169 8.83717 2.58169C15.5091 2.58169 21.1811 6.85587 23.2757 12.8224C25.0946 14.6443 26.2152 17.1224 26.2152 19.8596C26.2152 22.5968 25.1894 24.8677 23.4999 26.6724C23.5257 26.7242 20.9139 29.116 19.5346 29.9795C18.9571 30.3421 19.4312 31.1106 19.5346 31.1538C26.1462 29.4182 31.0252 23.2963 31.0252 16L31.0165 16.0086Z" fill="url(#paint0_linear_1_81)"/>
    <path d="M0.398132 16.0086C0.398132 19.1085 1.286 21.9924 2.80313 24.4188C2.60487 23.633 2.50143 22.8127 2.50143 21.9579C2.50143 18.2018 4.5616 14.9638 7.51831 13.5046C9.4492 11.1905 12.3972 9.71394 15.716 9.71394C18.6899 9.71394 21.3707 10.9055 23.2844 12.8224C21.1811 6.86452 15.5091 2.58171 8.83716 2.58171C8.47511 2.58171 8.12169 2.59898 7.76827 2.62489C3.34619 5.3707 0.398132 10.3356 0.398132 16.0086Z" fill="url(#paint1_linear_1_81)"/>
    <path d="M11.8887 31.1538C12.0956 30.463 12.3542 30.1694 10.9147 29.1678C9.47513 28.1663 7.92353 26.6724 7.91491 26.6638C6.22535 24.8591 5.19958 22.476 5.19958 19.851C5.19958 17.442 6.0702 15.2401 7.51838 13.4959C4.56171 14.9552 2.5015 18.1932 2.5015 21.9493C2.5015 22.8041 2.60494 23.6244 2.8032 24.4102C4.8634 27.6999 8.08731 30.1522 11.8887 31.1452V31.1538Z" fill="url(#paint2_linear_1_81)"/>
    <path d="M18.5606 31.8618H12.992C12.5969 31.8618 12.2766 32.1827 12.2766 32.5785V32.6217C12.2766 33.0175 12.5969 33.3384 12.992 33.3384H18.5606C18.9557 33.3384 19.2761 33.0175 19.2761 32.6217V32.5785C19.2761 32.1827 18.9557 31.8618 18.5606 31.8618Z" fill="#89B0BE"/>
    <path d="M17.8279 34.0895H14.0351C13.64 34.0895 13.3196 34.4104 13.3196 34.8063V34.8494C13.3196 35.2452 13.64 35.5661 14.0351 35.5661H17.8279C18.2231 35.5661 18.5434 35.2452 18.5434 34.8494V34.8063C18.5434 34.4104 18.2231 34.0895 17.8279 34.0895Z" fill="#89B0BE"/>
  </g>
  <defs>
    <linearGradient id="paint0_linear_1_81" x1="7.76828" y1="15.7582" x2="31.0165" y2="15.7582" gradientUnits="userSpaceOnUse">
      <stop offset="0.06" stop-color="#00B2E3"/>
      <stop offset="0.21" stop-color="#00AEDF"/>
      <stop offset="0.36" stop-color="#00A5D3"/>
      <stop offset="0.5" stop-color="#0095C0"/>
      <stop offset="0.64" stop-color="#007FA4"/>
      <stop offset="0.78" stop-color="#006281"/>
      <stop offset="0.92" stop-color="#004057"/>
      <stop offset="1" stop-color="#002A3C"/>
    </linearGradient>
    <linearGradient id="paint1_linear_1_81" x1="0.398132" y1="13.5046" x2="23.2758" y2="13.5046" gradientUnits="userSpaceOnUse">
      <stop stop-color="#86CABC"/>
      <stop offset="0.36" stop-color="#6DCAD5"/>
      <stop offset="1" stop-color="#00A99D"/>
    </linearGradient>
    <linearGradient id="paint2_linear_1_81" x1="2.5015" y1="22.3378" x2="12.0525" y2="22.3378" gradientUnits="userSpaceOnUse">
      <stop offset="0.06" stop-color="#002A3C"/>
      <stop offset="0.17" stop-color="#1C4557"/>
      <stop offset="0.35" stop-color="#436B7B"/>
      <stop offset="0.52" stop-color="#618998"/>
      <stop offset="0.69" stop-color="#779EAD"/>
      <stop offset="0.85" stop-color="#84ABB9"/>
      <stop offset="1" stop-color="#89B0BE"/>
    </linearGradient>
  </defs>
</svg>