<svg width="32" height="32" viewBox="0 0 32 32" fill="none" xmlns="http://www.w3.org/2000/svg">
<g clip-path="url(#clip0_2_233)">
<path d="M22 0H10C4.47715 0 0 4.47715 0 10V22C0 27.5228 4.47715 32 10 32H22C27.5228 32 32 27.5228 32 22V10C32 4.47715 27.5228 0 22 0Z" fill="url(#paint0_linear_2_233)"/>
<path d="M12.6378 11.3987C12.9124 10.4285 14.2876 10.4285 14.5622 11.3987L15.5657 14.9439C15.6603 15.2781 15.9215 15.5392 16.2556 15.6338L19.8008 16.6373C20.771 16.9119 20.771 18.2871 19.8008 18.5617L16.2556 19.5653C15.9215 19.6598 15.6603 19.921 15.5657 20.2551L14.5622 23.8003C14.2876 24.7705 12.9124 24.7705 12.6378 23.8003L11.6343 20.2551C11.5397 19.921 11.2785 19.6598 10.9444 19.5653L7.39917 18.5617C6.42899 18.2871 6.429 16.9119 7.39918 16.6373L10.9444 15.6338C11.2786 15.5392 11.5397 15.2781 11.6343 14.9439L12.6378 11.3987Z" fill="white"/>
<path d="M21.4378 6.59864C21.7124 5.62846 23.0876 5.62846 23.3622 6.59864L23.6598 7.64987C23.7543 7.98399 24.0155 8.24512 24.3496 8.3397L25.4008 8.63727C26.371 8.91189 26.371 10.287 25.4008 10.5617L24.3496 10.8592C24.0155 10.9538 23.7543 11.2149 23.6598 11.5491L23.3622 12.6003C23.0876 13.5705 21.7124 13.5705 21.4378 12.6003L21.1402 11.5491C21.0457 11.2149 20.7845 10.9538 20.4504 10.8592L19.3992 10.5617C18.429 10.287 18.429 8.91189 19.3992 8.63727L20.4504 8.3397C20.7845 8.24512 21.0457 7.98399 21.1402 7.64987L21.4378 6.59864Z" fill="white"/>
</g>
<defs>
<linearGradient id="paint0_linear_2_233" x1="28.8" y1="-0.00048857" x2="2.8" y2="30.7995" gradientUnits="userSpaceOnUse">
<stop stop-color="#3C82F6"/>
<stop offset="1" stop-color="#145ACE"/>
</linearGradient>
<clipPath id="clip0_2_233">
<rect width="32" height="32" fill="white"/>
</clipPath>
</defs>
</svg>
