<svg width="32" height="32" viewBox="0 0 32 32" fill="none" xmlns="http://www.w3.org/2000/svg">
<g clip-path="url(#clip0_2_45)">
<path d="M3 9.33325V11.9999V13.3333V17.3333V18.6666V25.3333V26.6666C3 28.1333 4.19387 29.3333 5.66667 29.3333H26.3333C27.8067 29.3333 29 28.1333 29 26.6666V25.3333V18.6666V13.3333V9.33325H3Z" fill="#3671D8"/>
<path d="M3 8V10.6667V12V16V17.3333V24V25.3333C3 26.8 4.19387 28 5.66667 28H26.3333C27.8067 28 29 26.8 29 25.3333V24V17.3333V12V8H3Z" fill="#ECF0F1"/>
<path d="M3 6.66675V9.33341V10.6667V14.6667V16.0001V22.6667V24.0001C3 25.4667 4.19387 26.6667 5.66667 26.6667H26.3333C27.8067 26.6667 29 25.4667 29 24.0001V22.6667V16.0001V10.6667V6.66675H3Z" fill="#BDC3C7"/>
<path d="M3 5.33325V7.99992V9.33325V13.3333V14.6666V21.3333V22.6666C3 24.1333 4.19387 25.3333 5.66667 25.3333H26.3333C27.8067 25.3333 29 24.1333 29 22.6666V21.3333V14.6666V9.33325V5.33325H3Z" fill="#ECF0F1"/>
<path d="M4.66667 0C3.19387 0 2 1.2 2 2.66667V4V9.33333V12V13.3333V17.3333V18.6667V25.3333V26.6667C2 28.1333 3.19387 29.3333 4.66667 29.3333H8.33333V28H5.33333C4.2288 28 3.33333 27.0667 3.33333 26C3.33333 24.8 4.2288 24 5.33333 24H23H24.3333C25.8067 24 27 22.8 27 21.3333V20V13.3333V8V4V2.66667C27 1.2 25.8067 0 24.3333 0H19H4.66667Z" fill="#3671D8"/>
<path d="M9.66666 0V24H11H25H26.3333C27.8067 24 29 22.8 29 21.3333V20V13.3333V8V4V2.66667C29 1.2 27.8067 0 26.3333 0H19H11H9.66666Z" fill="#3C82F6"/>
<path d="M24.6 8.54761C23.3933 8.54761 22.9 7.69427 23.5 6.6476C23.8467 6.04094 23.64 5.2676 23.0333 4.92094L21.88 4.26094C21.3533 3.9476 20.6733 4.13427 20.36 4.66094L20.2867 4.7876C19.6867 5.83427 18.7 5.83427 18.0933 4.7876L18.02 4.66094C17.72 4.13427 17.04 3.9476 16.5133 4.26094L15.36 4.92094C14.7533 5.2676 14.5467 6.0476 14.8933 6.65427C15.5 7.69427 15.0067 8.54761 13.8 8.54761C13.1067 8.54761 12.5333 9.11427 12.5333 9.81427V10.9876C12.5333 11.6809 13.1 12.2543 13.8 12.2543C15.0067 12.2543 15.5 13.1076 14.8933 14.1543C14.5467 14.7609 14.7533 15.5343 15.36 15.8809L16.5133 16.5409C17.04 16.8543 17.72 16.6676 18.0333 16.1409L18.1067 16.0143C18.7067 14.9676 19.6933 14.9676 20.3 16.0143L20.3733 16.1409C20.6867 16.6676 21.3667 16.8543 21.8933 16.5409L23.0467 15.8809C23.6533 15.5343 23.86 14.7543 23.5133 14.1543C22.9067 13.1076 23.4 12.2543 24.6067 12.2543C25.3 12.2543 25.8733 11.6876 25.8733 10.9876V9.81427C25.8667 9.12094 25.3 8.54761 24.6 8.54761ZM19.2 12.5676C18.0067 12.5676 17.0333 11.5943 17.0333 10.4009C17.0333 9.2076 18.0067 8.23427 19.2 8.23427C20.3933 8.23427 21.3667 9.2076 21.3667 10.4009C21.3667 11.5943 20.3933 12.5676 19.2 12.5676Z" fill="white"/>
<path d="M8.33333 26.6667V29.3334V32.0001L11.6667 29.3334L15 32.0001V29.3334V26.6667H8.33333Z" fill="#E74C3C"/>
<path d="M15 25.3333H8.33333V26.6666H15V25.3333Z" fill="#C0392B"/>
</g>
<defs>
<clipPath id="clip0_2_45">
<rect width="32" height="32" fill="white"/>
</clipPath>
</defs>
</svg>
