<svg width="32" height="32" viewBox="0 0 32 32" fill="none" xmlns="http://www.w3.org/2000/svg">
<g clip-path="url(#clip0_2_227)">
<path d="M30.6406 11.0851V28.026C30.6406 29.1796 29.7027 30.1175 28.5491 30.1175L21.5676 29.0152C20.932 28.9148 20.2818 28.9625 19.6676 29.1544L11.7135 31.6397C10.9612 31.8748 10.1578 31.8925 9.3958 31.6909L3.45088 30.1175C3.45088 30.1175 1.35936 29.1796 1.35936 28.026V11.0851C1.35936 9.93151 2.29728 8.99359 3.45088 8.99359C4.26573 8.99359 7.47746 10.0371 9.29342 10.65C10.1211 10.9293 11.013 10.9536 11.8515 10.709L19.846 8.3773C20.3452 8.2317 20.864 8.18009 21.3819 8.22706C23.2521 8.39668 27.8839 8.82762 28.5491 8.99359C29.3857 9.20233 30.6406 9.93151 30.6406 11.0851Z" fill="#E2E8F0"/>
<path d="M11.817 13.3854L19.3464 10.8756V25.9346L11.817 28.4444V13.3854Z" fill="#12B981"/>
<path d="M21.8563 25.9345L28.5491 26.7711V11.7122L21.8563 10.8756V25.9345Z" fill="#FBBF24"/>
<path d="M21.8563 25.9345L28.5491 26.7711V23.4247L21.8563 20.9149V25.9345Z" fill="#3C82F6"/>
<path d="M21.8563 16.7318L28.5491 15.0586V11.7122L21.8563 10.8756V16.7318Z" fill="#6EE7B7"/>
<path d="M9.30713 13.3853L3.45088 11.712V26.771L9.30713 28.4442V13.3853Z" fill="#3C82F6"/>
<path d="M9.30713 13.3853L3.45088 11.712V17.5683L9.30713 19.2415V13.3853Z" fill="#6EE7B7"/>
<path d="M22.6929 6.58989C22.6929 2.95152 19.695 -0.000366211 16 -0.000366211C12.305 -0.000366211 9.30713 2.95152 9.30713 6.58989C9.30713 8.54293 10.1681 10.2935 11.5381 11.5017L16 15.8952L20.4619 11.5017C21.8319 10.2935 22.6929 8.5395 22.6929 6.58989ZM16 8.78664C14.7695 8.78664 13.769 7.80153 13.769 6.58989C13.769 5.37824 14.7695 4.39314 16 4.39314C17.2305 4.39314 18.231 5.37824 18.231 6.58989C18.231 7.80153 17.2305 8.78664 16 8.78664Z" fill="#DC2625"/>
<path d="M2.19596 15.0586L17.2549 27.6077" stroke="#E2E8F0" stroke-width="3.13728"/>
<path d="M10.9804 22.588L29.804 14.2219" stroke="#E2E8F0" stroke-width="3.13728"/>
<path d="M21.0197 19.2417L29.3857 24.2613" stroke="#E2E8F0" stroke-width="3.13728"/>
</g>
<defs>
<clipPath id="clip0_2_227">
<rect width="32" height="32" fill="white"/>
</clipPath>
</defs>
</svg>
