<svg width="32" height="32" viewBox="0 0 32 32" fill="none" xmlns="http://www.w3.org/2000/svg">
<g clip-path="url(#clip0_2_75)">
<path d="M15.6074 0.0914974L1.58194 7.32204C1.2754 7.5022 1.18667 7.77109 1.18936 8.16099L1.21625 8.64768L16.0242 16.2412L30.7972 8.76869C30.7972 8.76869 30.8133 8.69339 30.8133 8.42988C30.8133 8.42988 30.7999 8.08301 30.7219 7.92167C30.6359 7.73882 30.453 7.5748 30.3347 7.47531C30.0201 7.21448 29.7055 6.98323 29.1704 6.68207C21.4989 2.34482 16.4544 0.11032 16.4544 0.11032C16.1291 -0.0106821 15.8602 -0.053705 15.6074 0.0914974Z" fill="#DEA66C"/>
<path d="M1.40985 24.6469C2.22728 25.1873 3.71964 25.8972 5.22813 26.7146C8.7345 28.613 13.1659 30.9201 15.3708 31.8263C15.6693 31.95 15.8467 32.0092 16.0538 32.0199C16.207 32.028 16.4598 31.9258 16.4598 31.9258C16.4598 31.9258 16.0484 17.0856 16.0242 16.2386C16 15.4104 15.6531 15.1361 15.3466 14.9371C14.868 14.6306 13.83 14.152 13.83 14.152C13.83 14.152 10.1946 12.345 6.56453 10.4412C4.83824 9.53505 3.38083 8.60737 1.81319 7.84371C1.52547 7.70658 1.18666 7.87867 1.18666 8.20134V24.2812C1.18666 24.4344 1.28078 24.5635 1.40985 24.6469Z" fill="#B38251"/>
<path d="M30.4073 24.741L16.4894 31.9177C16.2662 32.0334 16 31.872 16 31.6193L16.0242 16.2439C16.0242 16.0961 15.9785 15.7707 15.9328 15.6416C15.8064 15.2652 16.0807 15.1146 16.2044 15.0528L30.0094 7.94321C30.375 7.75499 30.8133 8.02119 30.8133 8.4326V24.0795C30.8133 24.3565 30.6574 24.6119 30.4073 24.741Z" fill="#966239"/>
<path opacity="0.5" d="M24.1905 11.5867C24.1905 11.5867 16.562 15.4884 16.4383 15.8191C16.3146 16.1471 22.4239 13.2108 23.1391 12.8424C23.9485 12.4257 30.3051 9.02685 30.3051 8.65308C30.3078 8.34655 24.1905 11.5867 24.1905 11.5867Z" fill="#212121"/>
<path d="M25.8791 9.94646C25.7447 9.84696 11.3078 2.3045 11.3078 2.3045L6.82805 4.61968L21.6306 12.2536L21.6387 12.2616L25.9706 10.0433C25.9706 10.0433 25.9625 10.0217 25.9383 9.99485C25.9195 9.97872 25.8872 9.95452 25.8791 9.94646Z" fill="#FFE0B2"/>
<path d="M25.9491 10.011C23.4967 11.2183 21.6306 12.2536 21.6306 12.2536C21.6925 12.3154 21.6952 12.3961 21.6952 12.4364C21.6871 12.7483 21.6817 12.9957 21.6736 13.3049C21.636 14.9048 21.6145 16.5074 21.5607 18.1074C21.7409 17.9998 21.9587 18.2364 22.1227 18.1074C22.3755 17.9084 22.9132 17.0318 22.9939 17.0049C23.1015 16.9699 23.2171 16.9968 23.3273 16.9915C23.8114 16.9646 24.895 15.9777 25.1262 15.932C25.3494 15.889 26.0862 16.0315 26.0862 16.0315C26.0862 16.0315 26.0351 11.1511 26.0163 10.331C26.0109 10.0406 25.9491 10.011 25.9491 10.011Z" fill="#BF9F85"/>
</g>
<defs>
<clipPath id="clip0_2_75">
<rect width="32" height="32" fill="white"/>
</clipPath>
</defs>
</svg>
