<svg width="32" height="32" viewBox="0 0 32 32" fill="none" xmlns="http://www.w3.org/2000/svg">
<g clip-path="url(#clip0_2_69)">
<path d="M3.99996 0.00012207H20.9929L29.9999 8.97215V30.0001C29.9999 31.1051 29.104 32.0001 27.9999 32.0001H3.99996C2.89593 32.0001 1.99998 31.1051 1.99998 30.0001V2.0001C1.99998 0.895142 2.89604 0.00012207 3.99996 0.00012207Z" fill="#E2574C"/>
<path d="M29.971 9.00008H23C21.896 9.00008 21.0001 8.10412 21.0001 7.00009V0.0200806L29.971 9.00008Z" fill="#B53629"/>
<path d="M25.6579 14.4914C26.1561 14.4914 26.4 14.0623 26.4 13.6465C26.4 13.2159 26.1457 12.8001 25.6579 12.8001H22.8205C22.2658 12.8001 21.9565 13.2541 21.9565 13.7552V20.645C21.9565 21.2592 22.3104 21.6001 22.7893 21.6001C23.2652 21.6001 23.6206 21.2592 23.6206 20.645V18.754H25.3368C25.8691 18.754 26.1353 18.3234 26.1353 17.8959C26.1353 17.4772 25.8691 17.0612 25.3368 17.0612H23.6206V14.4914H25.6579ZM16.0676 12.8001H13.9916C13.428 12.8001 13.0279 13.1822 13.0279 13.7493V20.6509C13.0279 21.3547 13.6034 21.5752 14.0153 21.5752H16.194C18.7725 21.5752 20.4752 19.8987 20.4752 17.311C20.4738 14.5751 18.8708 12.8001 16.0676 12.8001ZM16.1673 19.8737H14.9018V14.5017H16.0424C17.769 14.5017 18.5199 15.6464 18.5199 17.2259C18.5199 18.7041 17.7822 19.8737 16.1673 19.8737ZM8.56231 12.8001H6.50568C5.92421 12.8001 5.6 13.1791 5.6 13.7552V20.645C5.6 21.2592 5.97175 21.6001 6.47137 21.6001C6.97098 21.6001 7.34273 21.2592 7.34273 20.645V18.6334H8.63201C10.2232 18.6334 11.5363 17.5196 11.5363 15.7285C11.5365 13.9757 10.2695 12.8001 8.56231 12.8001ZM8.52815 17.0173H7.34289V14.4179H8.52815C9.2598 14.4179 9.72526 14.9821 9.72526 15.7183C9.72372 16.4531 9.2598 17.0173 8.52815 17.0173Z" fill="white"/>
</g>
<defs>
<clipPath id="clip0_2_69">
<rect width="32" height="32" fill="white"/>
</clipPath>
</defs>
</svg>
