<svg xmlns="http://www.w3.org/2000/svg" width="243" height="81" viewBox="0 0 243 81" fill="none"><g clip-path="url(#clip0_76_831)"><path d="M94.2289 37.0195C94.2674 35.8541 95.3655 34.883 96.6176 34.883C97.8698 34.883 99.0064 35.8153 99.0064 37.0195V49.1781C99.0064 50.3823 97.9083 51.3145 96.6176 51.3145C95.3269 51.3145 94.2674 50.3434 94.2289 49.1781V48.8673C93.2079 50.5571 91.2623 51.4505 89.4515 51.4505C85.3868 51.4505 81.6881 48.4206 81.6881 43.0794C81.6881 37.7381 85.3868 34.747 89.4515 34.747C90.4724 34.747 92.8804 35.1938 94.2289 37.3302V37.0195ZM90.3761 47.1969C92.5337 47.1969 94.2674 45.2741 94.2674 43.1376C94.2674 41.0011 92.5144 39.0783 90.3761 39.0783C87.9874 39.0783 86.6197 41.0011 86.6197 43.1376C86.6197 45.2741 87.9874 47.1969 90.3761 47.1969Z" fill="#002A3C"/><path d="M105.441 26.2982C107.039 26.2982 108.349 27.5024 108.349 29.0951C108.349 30.6877 107.059 31.9308 105.441 31.9308C103.822 31.9308 102.474 30.6877 102.474 29.0951C102.474 27.5024 103.842 26.2982 105.441 26.2982ZM107.849 49.1975C107.849 50.4017 106.75 51.334 105.46 51.334C104.169 51.334 103.11 50.3629 103.071 49.1975V37.0389C103.11 35.8736 104.208 34.9024 105.46 34.9024C106.712 34.9024 107.849 35.8347 107.849 37.0389V49.1975Z" fill="#002A3C"/><path d="M115.519 50.1492C115.519 50.8095 115.037 51.3145 114.382 51.3145C113.727 51.3145 113.265 50.7901 113.265 50.1492V27.3276C113.265 26.6672 113.747 26.1622 114.382 26.1622C115.018 26.1622 115.519 26.6866 115.519 27.3276V37.6993C116.713 35.6599 119.218 34.7082 121.529 34.7082C126.076 34.7082 129.697 37.9518 129.697 43.0405C129.697 48.1292 126.076 51.4893 121.529 51.4893C119.198 51.4893 116.713 50.4211 115.519 48.3817V50.1492ZM121.548 37.0195C118.678 37.0195 115.538 39.0783 115.538 43.0599C115.538 47.0416 118.312 49.1975 121.548 49.1975C124.785 49.1975 127.424 46.6531 127.424 43.0599C127.424 39.4667 124.862 37.0195 121.548 37.0195Z" fill="#002A3C"/><path d="M139.946 37.0195C136.69 37.0195 135.361 40.8846 135.361 45.1576V50.1492C135.361 50.8096 134.879 51.3145 134.224 51.3145C133.569 51.3145 133.107 50.7901 133.107 50.1492V36.0483C133.107 35.388 133.589 34.883 134.224 34.883C134.86 34.883 135.361 35.4074 135.361 36.0483V38.7093C136.151 35.9512 137.615 34.7082 139.946 34.7082C140.639 34.7082 141.313 34.8053 141.891 35.019C142.508 35.2326 142.816 35.8541 142.604 36.4757C142.392 37.0972 141.756 37.272 141.14 37.1554C140.697 37.0777 140.254 37.0195 139.946 37.0195Z" fill="#002A3C"/><path d="M144.049 43.0599C144.049 37.9518 147.844 34.7276 152.39 34.7276C156.936 34.7276 160.731 37.9712 160.731 43.0599C160.731 48.1486 156.936 51.5088 152.39 51.5088C147.844 51.5088 144.049 48.1681 144.049 43.0599ZM158.477 43.0599C158.477 39.3308 155.703 37 152.39 37C149.077 37 146.303 39.3502 146.303 43.0599C146.303 46.7696 149.077 49.2363 152.39 49.2363C155.703 49.2363 158.477 46.7891 158.477 43.0599Z" fill="#002A3C"/><path d="M169.785 47.5077L173.985 36.0678C174.293 35.2714 174.775 34.9024 175.526 34.9024H175.699C176.451 34.9024 176.894 35.2909 177.202 36.0678L181.44 47.5077L185.813 35.7182C186.025 35.0578 186.603 34.7859 187.219 34.9218C187.836 35.0578 188.144 35.757 187.932 36.3785L182.769 50.3434C182.538 51.0038 182.056 51.334 181.498 51.334H181.421C180.843 51.334 180.438 50.9844 180.188 50.3434L175.564 38.2431L171.095 50.3434C170.864 51.0038 170.44 51.334 169.862 51.334H169.785C169.246 51.334 168.764 50.9844 168.514 50.3434L163.216 36.3785C163.004 35.757 163.313 35.0772 163.929 34.9218C164.546 34.7665 165.123 35.0578 165.335 35.7182L169.747 47.5077H169.785Z" fill="#002A3C"/><path d="M191.322 46.4006C191.939 46.2646 192.42 46.6725 192.613 47.2552C193.018 48.2846 193.942 49.314 196.138 49.314C198.2 49.314 199.529 48.2846 199.529 46.7696C199.529 45.7014 198.912 44.7108 197.236 44.2835L195.021 43.7591C193.037 43.2736 190.571 42.283 190.995 38.515C191.342 36.2037 193.595 34.6888 196.196 34.6888C198.257 34.6888 200.126 35.5433 200.916 37.5827C201.128 38.1654 200.781 38.8258 200.164 39.0006C199.413 39.2142 199.066 38.7675 198.758 38.2042C198.277 37.3497 197.525 36.9029 196.196 36.9029C194.655 36.9029 193.384 37.7381 193.229 38.8646C192.883 40.7292 194.462 41.273 195.58 41.5449L197.776 42.0693C200.781 42.788 201.802 44.5554 201.802 46.7502C201.802 49.5471 199.278 51.4699 195.946 51.4699C193.615 51.4699 191.303 50.0909 190.571 47.7213C190.398 47.0998 190.744 46.5171 191.322 46.3812V46.4006Z" fill="#002A3C"/><path d="M213.071 51.5088C208.525 51.5088 205 48.1681 205 43.0599C205 37.9518 208.525 34.7276 213.071 34.7276C217.618 34.7276 220.892 37.9712 220.892 43.0599C220.892 43.6814 220.372 44.1282 219.833 44.1282H207.311C207.716 47.2746 210.085 49.2363 213.052 49.2363C215.267 49.2363 216.577 48.3817 217.695 47.0221C218.099 46.4977 218.716 46.2258 219.274 46.6143C219.814 46.9639 219.968 47.6437 219.621 48.2069C218.176 50.3046 215.768 51.5088 213.052 51.5088H213.071ZM218.581 41.9917C218.138 38.9229 216.019 37 213.071 37C210.124 37 207.774 38.9229 207.331 41.9917H218.581Z" fill="#002A3C"/><path d="M231.834 37.0195C228.579 37.0195 227.249 40.8846 227.249 45.1576V50.1492C227.249 50.8096 226.768 51.3145 226.113 51.3145C225.458 51.3145 224.996 50.7901 224.996 50.1492V36.0483C224.996 35.388 225.477 34.883 226.113 34.883C226.749 34.883 227.249 35.4074 227.249 36.0483V38.7093C228.039 35.9512 229.503 34.7082 231.834 34.7082C232.528 34.7082 233.202 34.8053 233.78 35.019C234.396 35.2326 234.705 35.8541 234.493 36.4757C234.281 37.0972 233.645 37.272 233.029 37.1554C232.586 37.0777 232.143 37.0195 231.834 37.0195Z" fill="#002A3C"/><path d="M69.7875 36.0192C69.7875 16.5718 54.3684 0.815704 35.3418 0.815704C28.8056 0.815704 22.6962 2.68079 17.4789 5.90584C18.2741 5.84755 19.0693 5.8087 19.8839 5.8087C34.8957 5.8087 47.6577 15.4256 52.3707 28.8503C56.4631 32.9496 58.9845 38.5254 58.9845 44.6841C58.9845 50.8428 56.6764 55.9523 52.875 60.0128C52.9332 60.1294 47.0565 65.5109 43.9532 67.4537C42.6538 68.2697 43.7205 69.9988 43.9532 70.0959C58.8293 66.1909 69.8069 52.4165 69.8069 35.9998L69.7875 36.0192Z" fill="url(#paint0_linear_76_831)"/><path d="M0.895996 36.0192C0.895996 42.9939 2.89369 49.4828 6.30724 54.9421C5.86115 53.1741 5.62841 51.3285 5.62841 49.4051C5.62841 40.9539 10.2638 33.6684 16.9164 30.3851C21.2609 25.1784 27.894 21.8562 35.3611 21.8562C42.0525 21.8562 48.0843 24.5373 52.3901 28.8503C47.6576 15.445 34.8957 5.80869 19.8838 5.80869C19.0692 5.80869 18.274 5.84754 17.4788 5.90583C7.52913 12.0839 0.895996 23.255 0.895996 36.0192Z" fill="url(#paint1_linear_76_831)"/><path d="M26.7497 70.0959C27.2152 68.5417 27.797 67.8811 24.5581 65.6275C21.3191 63.3739 17.828 60.0128 17.8086 59.9934C14.0071 55.9329 11.6991 50.5708 11.6991 44.6647C11.6991 39.2443 13.658 34.2901 16.9164 30.3657C10.2639 33.649 5.62842 40.9345 5.62842 49.3857C5.62842 51.3091 5.86116 53.1547 6.30725 54.9227C10.9427 62.3247 18.1965 67.8423 26.7497 70.0765V70.0959Z" fill="url(#paint2_linear_76_831)"/><path d="M41.7615 71.689H29.2322C28.3432 71.689 27.6224 72.411 27.6224 73.3016V73.3987C27.6224 74.2893 28.3432 75.0112 29.2322 75.0112H41.7615C42.6505 75.0112 43.3713 74.2893 43.3713 73.3987V73.3016C43.3713 72.411 42.6505 71.689 41.7615 71.689Z" fill="#89B0BE"/><path d="M40.1129 76.7014H31.579C30.69 76.7014 29.9692 77.4234 29.9692 78.314V78.4111C29.9692 79.3017 30.69 80.0236 31.579 80.0236H40.1129C41.002 80.0236 41.7227 79.3017 41.7227 78.4111V78.314C41.7227 77.4234 41.002 76.7014 40.1129 76.7014Z" fill="#89B0BE"/></g><defs><linearGradient id="paint0_linear_76_831" x1="17.4789" y1="35.4558" x2="69.7875" y2="35.4558" gradientUnits="userSpaceOnUse"><stop offset="0.06" stop-color="#00B2E3"/><stop offset="0.21" stop-color="#00AEDF"/><stop offset="0.36" stop-color="#00A5D3"/><stop offset="0.5" stop-color="#0095C0"/><stop offset="0.64" stop-color="#007FA4"/><stop offset="0.78" stop-color="#006281"/><stop offset="0.92" stop-color="#004057"/><stop offset="1" stop-color="#002A3C"/></linearGradient><linearGradient id="paint1_linear_76_831" x1="0.895996" y1="30.3851" x2="52.3707" y2="30.3851" gradientUnits="userSpaceOnUse"><stop stop-color="#86CABC"/><stop offset="0.36" stop-color="#6DCAD5"/><stop offset="1" stop-color="#00A99D"/></linearGradient><linearGradient id="paint2_linear_76_831" x1="5.62842" y1="50.26" x2="27.1182" y2="50.26" gradientUnits="userSpaceOnUse"><stop offset="0.06" stop-color="#002A3C"/><stop offset="0.17" stop-color="#1C4557"/><stop offset="0.35" stop-color="#436B7B"/><stop offset="0.52" stop-color="#618998"/><stop offset="0.69" stop-color="#779EAD"/><stop offset="0.85" stop-color="#84ABB9"/><stop offset="1" stop-color="#89B0BE"/></linearGradient><clipPath id="clip0_76_831"><rect width="242.376" height="80" fill="white" transform="translate(0.5 0.710785)"/></clipPath></defs></svg>