<svg xmlns="http://www.w3.org/2000/svg" width="455" height="380" viewBox="0 0 455 380" fill="none"><g clip-path="url(#clip0_319_4083)"><mask id="mask0_319_4083" style="mask-type:alpha" maskUnits="userSpaceOnUse" x="57" y="292" width="279" height="129"><rect x="57.6572" y="292.46" width="277.619" height="128.526" fill="#D9D9D9"></rect></mask><g mask="url(#mask0_319_4083)"><rect x="77.1904" y="54.0356" width="328.745" height="291.968" rx="19" stroke="#89B0BE" stroke-width="2" stroke-dasharray="10 5"></rect></g><mask id="mask1_319_4083" style="mask-type:alpha" maskUnits="userSpaceOnUse" x="241" y="24" width="188" height="130"><rect x="241.146" y="24.6572" width="187.288" height="128.526" fill="#D9D9D9"></rect></mask><g mask="url(#mask1_319_4083)"><rect x="77.1904" y="54.0361" width="328.745" height="291.968" rx="19" stroke="#89B0BE" stroke-width="2" stroke-dasharray="10 5"></rect></g><path d="M349.557 351.919C349.557 365.69 360.727 376.976 374.51 376.976H427.839C441.621 376.976 452.864 365.69 452.864 351.919V280.777H349.557V351.919ZM400.363 294.656C406.921 294.656 412.236 299.967 412.236 306.519C412.236 313.072 406.921 318.382 400.363 318.382C393.805 318.382 388.49 313.072 388.49 306.519C388.49 299.967 393.805 294.656 400.363 294.656Z" fill="#00B2E3"></path><path d="M400.345 176.567C379.879 176.567 363.321 193.165 363.321 213.614V265.278H375.32V215.45C375.32 201.625 386.527 190.428 400.363 190.428H400.399C414.218 190.428 425.406 201.643 425.406 215.45V265.278H437.405V213.614C437.405 193.165 420.866 176.585 400.381 176.567H400.345Z" fill="#89B0BE"></path><path d="M426.307 379.046H374.42C358.601 379.046 345.737 366.193 345.737 350.388V276.475C345.737 269.652 351.286 264.108 358.115 264.108H442.612C449.441 264.108 454.99 269.652 454.99 276.475V350.388C454.99 366.193 442.126 379.046 426.307 379.046ZM358.115 268.482C353.719 268.482 350.133 272.064 350.133 276.457V350.37C350.133 363.745 361.033 374.636 374.42 374.636H426.307C439.694 374.636 450.594 363.745 450.594 350.37V276.457C450.594 272.064 447.009 268.482 442.612 268.482H358.115Z" fill="#002A3C"></path><path d="M400.363 320.578C392.598 320.578 386.292 314.278 386.292 306.519C386.292 298.76 392.598 292.46 400.363 292.46C408.129 292.46 414.434 298.76 414.434 306.519C414.434 314.278 408.129 320.578 400.363 320.578ZM400.363 296.852C395.031 296.852 390.689 301.191 390.689 306.519C390.689 311.847 395.031 316.186 400.363 316.186C405.696 316.186 410.038 311.847 410.038 306.519C410.038 301.191 405.696 296.852 400.363 296.852Z" fill="#002A3C"></path><path d="M400.327 344.664C399.12 344.664 398.129 343.673 398.129 342.467V318.49C398.129 317.284 399.12 316.293 400.327 316.293C401.535 316.293 402.525 317.284 402.525 318.49V342.467C402.525 343.673 401.535 344.664 400.327 344.664Z" fill="#002A3C"></path><path d="M437.442 267.33C436.235 267.33 435.244 266.34 435.244 265.134V213.614C435.244 194.389 419.587 178.763 400.364 178.763C381.14 178.763 365.483 194.407 365.483 213.614V265.134C365.483 266.34 364.493 267.33 363.285 267.33C362.078 267.33 361.087 266.34 361.087 265.134V213.614C361.087 191.976 378.708 174.371 400.364 174.371C422.02 174.371 439.64 191.976 439.64 213.614V265.134C439.64 266.34 438.649 267.33 437.442 267.33Z" fill="#002A3C"></path><path d="M425.407 267.564C424.2 267.564 423.209 266.574 423.209 265.368V215.45C423.209 202.867 412.957 192.624 400.364 192.624C387.77 192.624 377.501 202.867 377.501 215.45V265.368C377.501 266.574 376.51 267.564 375.303 267.564C374.095 267.564 373.104 266.574 373.104 265.368V215.45C373.104 200.437 385.32 188.232 400.346 188.232C415.371 188.232 427.587 200.437 427.587 215.45V265.368C427.587 266.574 426.596 267.564 425.389 267.564H425.407Z" fill="#002A3C"></path><path d="M412.183 282.811H349.557C348.35 282.811 347.359 281.821 347.359 280.615C347.359 279.409 348.35 278.419 349.557 278.419H412.183C413.39 278.419 414.381 279.409 414.381 280.615C414.381 281.821 413.39 282.811 412.183 282.811Z" fill="#002A3C"></path><path d="M451.405 282.811H430.632C429.425 282.811 428.434 281.821 428.434 280.615C428.434 279.409 429.425 278.419 430.632 278.419H451.405C452.612 278.419 453.603 279.409 453.603 280.615C453.603 281.821 452.612 282.811 451.405 282.811Z" fill="#002A3C"></path><path d="M315.2 165.533C313.74 164.849 313.11 163.102 313.794 161.644C314.479 160.186 316.226 159.556 317.686 160.24C319.145 160.924 319.776 162.67 319.091 164.128C318.587 165.191 317.542 165.821 316.443 165.821C316.028 165.821 315.614 165.731 315.2 165.551V165.533ZM323.721 164.056C323.001 162.616 323.577 160.852 325.019 160.132C326.46 159.412 328.226 159.988 328.946 161.428C329.667 162.868 329.09 164.633 327.649 165.353C327.235 165.569 326.784 165.659 326.334 165.659C325.271 165.659 324.226 165.065 323.721 164.056ZM307.344 155.884C306.966 154.318 307.939 152.734 309.524 152.374C311.092 152.014 312.677 152.968 313.038 154.552C313.416 156.118 312.443 157.702 310.858 158.062C310.623 158.116 310.407 158.134 310.173 158.134C308.84 158.134 307.651 157.234 307.326 155.884H307.344ZM331.775 157.756C330.189 157.432 329.162 155.884 329.487 154.3C329.811 152.716 331.36 151.708 332.946 152.032C334.531 152.356 335.54 153.904 335.216 155.488C334.928 156.874 333.703 157.828 332.351 157.828C332.153 157.828 331.955 157.81 331.757 157.774L331.775 157.756ZM310.515 147.855C309.254 146.847 309.038 145.011 310.047 143.751C311.056 142.491 312.893 142.275 314.155 143.283C315.416 144.291 315.632 146.127 314.623 147.387C314.046 148.125 313.182 148.503 312.317 148.503C311.686 148.503 311.038 148.287 310.497 147.873L310.515 147.855ZM327.703 147.189C326.658 145.947 326.82 144.111 328.063 143.067C329.307 142.023 331.144 142.185 332.189 143.427C333.234 144.669 333.072 146.505 331.829 147.549C331.27 148.017 330.604 148.233 329.955 148.233C329.126 148.233 328.298 147.873 327.721 147.189H327.703ZM318.316 141.267C318.316 139.647 319.632 138.351 321.235 138.351C322.857 138.351 324.154 139.665 324.154 141.267C324.154 142.887 322.839 144.183 321.235 144.183C319.614 144.183 318.316 142.869 318.316 141.267Z" fill="#002A3C"></path><path d="M14.3582 278.059C12.8989 277.375 12.2683 275.629 12.9529 274.171C13.6376 272.713 15.3852 272.083 16.8445 272.767C18.3039 273.451 18.9344 275.197 18.2498 276.655C17.7453 277.717 16.7004 278.347 15.6014 278.347C15.187 278.347 14.7726 278.257 14.3582 278.077V278.059ZM22.8801 276.583C22.1594 275.143 22.7359 273.379 24.1773 272.659C25.6186 271.939 27.3842 272.515 28.1049 273.955C28.8255 275.395 28.249 277.159 26.8077 277.879C26.3933 278.095 25.9429 278.185 25.4925 278.185C24.4295 278.185 23.3845 277.591 22.8801 276.565V276.583ZM6.50299 268.41C6.12464 266.844 7.09754 265.26 8.683 264.9C10.2504 264.522 11.8359 265.494 12.1962 267.078C12.5746 268.644 11.6017 270.228 10.0162 270.606C9.78201 270.66 9.56581 270.678 9.3316 270.678C7.99837 270.678 6.80927 269.76 6.48498 268.428L6.50299 268.41ZM30.9335 270.282C29.348 269.958 28.3391 268.41 28.6634 266.826C28.9877 265.242 30.5371 264.234 32.1226 264.558C33.708 264.882 34.717 266.43 34.3927 268.014C34.1044 269.4 32.8973 270.354 31.528 270.354C31.3299 270.354 31.1317 270.354 30.9335 270.3V270.282ZM9.67391 260.382C8.41275 259.374 8.19655 257.537 9.20548 256.277C10.2144 255.017 12.0521 254.801 13.3133 255.809C14.5744 256.817 14.7906 258.654 13.7817 259.914C13.2052 260.634 12.3404 261.03 11.4756 261.03C10.845 261.03 10.1964 260.832 9.6559 260.4L9.67391 260.382ZM26.8617 259.716C25.8168 258.474 25.9789 256.637 27.2221 255.593C28.4652 254.549 30.3029 254.711 31.3479 255.953C32.3928 257.195 32.2307 259.032 30.9875 260.076C30.429 260.544 29.7624 260.76 29.1138 260.76C28.285 260.76 27.4563 260.4 26.8798 259.716H26.8617ZM17.4751 253.793C17.4751 252.173 18.7903 250.877 20.3938 250.877C22.0153 250.877 23.3125 252.191 23.3125 253.793C23.3125 255.413 21.9973 256.709 20.3938 256.709C18.7723 256.709 17.4751 255.395 17.4751 253.793Z" fill="#002A3C"></path><path d="M170.157 315.393C168.697 314.709 168.067 312.963 168.751 311.505C169.436 310.047 171.184 309.417 172.643 310.101C174.102 310.785 174.733 312.531 174.048 313.989C173.544 315.051 172.499 315.681 171.4 315.681C170.985 315.681 170.571 315.591 170.157 315.411V315.393ZM178.679 313.917C177.958 312.477 178.534 310.713 179.976 309.993C181.417 309.273 183.183 309.849 183.903 311.289C184.624 312.729 184.048 314.493 182.606 315.213C182.192 315.429 181.741 315.519 181.291 315.519C180.228 315.519 179.183 314.925 178.679 313.899V313.917ZM162.301 305.745C161.941 304.179 162.896 302.595 164.481 302.234C166.049 301.856 167.634 302.829 167.995 304.413C168.373 305.979 167.4 307.563 165.815 307.923C165.581 307.977 165.364 308.013 165.148 308.013C163.815 308.013 162.626 307.095 162.301 305.763V305.745ZM186.732 307.617C185.147 307.293 184.12 305.745 184.462 304.161C184.786 302.576 186.336 301.568 187.921 301.892C189.507 302.216 190.533 303.765 190.209 305.349C189.921 306.735 188.714 307.689 187.345 307.689C187.146 307.689 186.948 307.689 186.75 307.635L186.732 307.617ZM165.472 297.716C164.193 296.708 163.995 294.872 164.986 293.612C165.995 292.352 167.833 292.136 169.094 293.144C170.355 294.152 170.571 295.988 169.562 297.248C168.986 297.968 168.139 298.364 167.274 298.364C166.643 298.364 165.995 298.148 165.454 297.734L165.472 297.716ZM182.66 297.05C181.615 295.808 181.777 293.972 183.021 292.928C184.264 291.884 186.101 292.046 187.146 293.288C188.191 294.53 188.029 296.366 186.786 297.41C186.246 297.878 185.579 298.094 184.912 298.094C184.084 298.094 183.255 297.734 182.66 297.05ZM173.274 291.128C173.274 289.508 174.589 288.211 176.192 288.211C177.814 288.211 179.111 289.526 179.111 291.128C179.111 292.748 177.796 294.044 176.192 294.044C174.571 294.044 173.274 292.73 173.274 291.128Z" fill="#002A3C"></path><path d="M270.969 276.979C269.762 276.979 268.771 275.989 268.771 274.782V259.877C268.771 258.671 269.762 257.681 270.969 257.681C272.176 257.681 273.167 258.671 273.167 259.877V274.782C273.167 275.989 272.176 276.979 270.969 276.979Z" fill="#6DCAD5"></path><path d="M278.428 269.508H263.51C262.303 269.508 261.312 268.518 261.312 267.312C261.312 266.106 262.303 265.116 263.51 265.116H278.428C279.635 265.116 280.626 266.106 280.626 267.312C280.626 268.518 279.635 269.508 278.428 269.508Z" fill="#6DCAD5"></path><path d="M259.114 108.217C257.906 108.217 256.916 107.227 256.916 106.021V91.1161C256.916 89.91 257.906 88.9199 259.114 88.9199C260.321 88.9199 261.312 89.91 261.312 91.1161V106.021C261.312 107.227 260.321 108.217 259.114 108.217Z" fill="#6DCAD5"></path><path d="M266.572 100.765H251.655C250.447 100.765 249.457 99.7748 249.457 98.5687C249.457 97.3626 250.447 96.3726 251.655 96.3726H266.572C267.779 96.3726 268.77 97.3626 268.77 98.5687C268.77 99.7748 267.779 100.765 266.572 100.765Z" fill="#6DCAD5"></path><path d="M47.9593 366.301C46.7521 366.301 45.7612 365.311 45.7612 364.105V349.2C45.7612 347.994 46.7521 347.004 47.9593 347.004C49.1664 347.004 50.1573 347.994 50.1573 349.2V364.105C50.1573 365.311 49.1664 366.301 47.9593 366.301Z" fill="#6DCAD5"></path><path d="M55.418 358.849H40.5003C39.2932 358.849 38.3022 357.859 38.3022 356.653C38.3022 355.447 39.2932 354.457 40.5003 354.457H55.418C56.6251 354.457 57.616 355.447 57.616 356.653C57.616 357.859 56.6251 358.849 55.418 358.849Z" fill="#6DCAD5"></path><path d="M112.404 30.0459H112.237C88.6763 53.859 59.1885 61.4317 25.4961 53.7291V109.8C25.4961 158.559 48.7233 204.552 88.0836 233.228L112.237 251.046H112.533L136.298 233.228C175.658 204.552 198.496 158.559 198.496 109.8V53.7291C164.489 61.4317 135.964 53.859 112.385 30.0459H112.404Z" fill="white"></path><path d="M112.476 2.38672H112.278C82.7669 31.6209 46.6436 41.9536 3.04346 32.3589V102.366C3.04346 163.247 32.4465 220.527 81.7219 256.331L112.278 278.437H112.656L142.51 256.331C191.785 220.545 220.486 163.247 220.486 102.366V32.3589C178.345 41.9716 141.987 31.6389 112.476 2.38672ZM196.199 110.737C196.199 158.026 173.985 202.634 135.7 230.446L112.584 247.727H112.296L88.8024 230.446C50.5172 202.634 27.9063 158.044 27.9063 110.737V56.3547C60.6785 63.8253 89.3609 56.4807 112.278 33.385H112.44C135.375 56.4807 163.121 63.8253 196.199 56.3547V110.737Z" fill="#6DCAD5"></path><path d="M112.657 280.471H112.278C111.81 280.471 111.359 280.327 110.999 280.057L80.515 258.023C56.0304 240.238 35.8158 216.62 22.0511 189.708C8.26845 162.76 0.989746 132.554 0.989746 102.366V32.3588C0.989746 31.6927 1.29603 31.0627 1.81851 30.6486C2.34099 30.2346 3.02562 30.0726 3.67422 30.2166C46.3555 39.6493 81.3798 30.0006 110.747 0.694435C111.161 0.280404 111.72 0.0463867 112.296 0.0463867H112.494C113.071 0.0463867 113.629 0.280404 114.044 0.694435C136.042 22.6381 161.806 33.6729 190.939 33.6729C200.325 33.6729 210.072 32.5208 220.144 30.2346C220.792 30.0906 221.477 30.2346 221.999 30.6667C222.522 31.0807 222.828 31.7107 222.828 32.3768V102.384C222.828 132.662 215.639 162.85 202.055 189.726C195.281 203.119 186.939 215.684 177.246 227.115C167.409 238.708 156.185 249.113 143.879 258.059L113.972 280.093C113.593 280.363 113.143 280.525 112.675 280.525L112.657 280.471ZM5.38579 35.059V102.366C5.38579 162.274 34.4285 219.141 83.0913 254.477L112.458 275.701L141.285 254.477C189.605 219.375 218.45 162.526 218.45 102.366V35.077C198.253 39.3253 178.904 38.9833 161.247 34.0509C143.447 29.0825 127.016 19.3798 112.404 5.21277C97.7568 19.4158 81.3437 29.1005 63.5794 34.0509C45.8691 38.9833 26.1769 39.3073 5.40381 35.059H5.38579Z" fill="#002A3C"></path><path d="M112.503 249.779H112.215C111.746 249.779 111.296 249.635 110.917 249.347L87.4959 232.138C68.4523 218.313 52.7599 199.879 42.0761 178.854C31.4283 157.864 25.7891 134.319 25.7891 110.737V56.3548C25.7891 55.6887 26.0953 55.0587 26.6178 54.6447C27.1403 54.2306 27.8249 54.0686 28.4735 54.2126C60.8493 61.5932 88.5048 54.0146 110.665 31.693C111.08 31.2789 111.638 31.0449 112.233 31.0449H112.395C112.971 31.0449 113.548 31.2789 113.962 31.693C136.339 54.2306 163.112 61.5932 195.812 54.2126C196.46 54.0686 197.145 54.2126 197.667 54.6447C198.19 55.0587 198.496 55.6887 198.496 56.3548V110.737C198.496 134.337 192.911 157.9 182.335 178.854C171.705 199.915 156.031 218.331 137.023 232.156L113.854 249.347C113.476 249.635 113.025 249.779 112.539 249.779H112.503ZM30.1671 59.073V110.737C30.1671 157.288 52.5617 201.356 90.0723 228.592L112.341 244.955L134.375 228.61C171.759 201.464 194.064 157.396 194.064 110.737V59.055C178.263 62.2772 163.364 62.0432 149.923 58.3529C136.213 54.6087 123.565 47.1561 112.287 36.2293C101.026 47.1381 88.2706 54.5907 74.3618 58.3529C60.7773 62.0432 45.9676 62.2772 30.1671 59.055V59.073Z" fill="#002A3C"></path><path d="M151.302 129.98C151.302 107.28 133.249 88.8828 110.981 88.8828C103.324 88.8828 96.1711 91.061 90.0815 94.8233C91.0184 94.7513 91.9372 94.7152 92.8921 94.7152C110.458 94.7152 125.394 105.948 130.925 121.627C135.718 126.416 138.672 132.932 138.672 140.115C138.672 147.297 135.952 153.274 131.502 158.008C131.556 158.152 124.691 164.416 121.052 166.703C119.521 167.657 120.782 169.691 121.034 169.781C138.438 165.226 151.302 149.133 151.302 129.98Z" fill="url(#paint0_linear_319_4083)"></path><path d="M70.6596 129.98C70.6596 138.117 72.9838 145.695 77.0015 152.086C76.479 150.033 76.1907 147.873 76.1907 145.623C76.1907 135.758 81.6137 127.262 89.3969 123.427C94.4775 117.361 102.243 113.455 110.981 113.455C118.818 113.455 125.88 116.587 130.907 121.627C125.376 105.966 110.44 94.7153 92.8741 94.7153C91.9372 94.7153 91.0003 94.7513 90.0635 94.8233C78.4248 102.024 70.6416 115.075 70.6416 129.962L70.6596 129.98Z" fill="url(#paint1_linear_319_4083)"></path><path d="M100.928 169.799C101.468 167.981 102.153 167.225 98.3513 164.596C94.5498 161.968 90.4781 158.044 90.4601 158.026C86.01 153.292 83.2895 147.027 83.2895 140.133C83.2895 133.814 85.5776 128.018 89.3971 123.445C81.6139 127.28 76.1909 135.776 76.1909 145.641C76.1909 147.873 76.4792 150.033 77.0017 152.103C82.4247 160.744 90.9285 167.189 100.946 169.799H100.928Z" fill="url(#paint2_linear_319_4083)"></path><path d="M119.593 171.635H102.711C102.283 171.635 101.937 171.981 101.937 172.409V174.749C101.937 175.177 102.283 175.523 102.711 175.523H119.593C120.021 175.523 120.367 175.177 120.367 174.749V172.409C120.367 171.981 120.021 171.635 119.593 171.635Z" fill="#89B0BE"></path><path d="M117.683 177.503H105.468C105.04 177.503 104.693 177.85 104.693 178.277V180.618C104.693 181.045 105.04 181.392 105.468 181.392H117.683C118.111 181.392 118.458 181.045 118.458 180.618V178.277C118.458 177.85 118.111 177.503 117.683 177.503Z" fill="#89B0BE"></path></g><defs><linearGradient id="paint0_linear_319_4083" x1="90.0635" y1="129.35" x2="151.302" y2="129.35" gradientUnits="userSpaceOnUse"><stop offset="0.06" stop-color="#00B2E3"></stop><stop offset="0.21" stop-color="#00AEDF"></stop><stop offset="0.36" stop-color="#00A5D3"></stop><stop offset="0.5" stop-color="#0095C0"></stop><stop offset="0.64" stop-color="#007FA4"></stop><stop offset="0.78" stop-color="#006281"></stop><stop offset="0.92" stop-color="#004057"></stop><stop offset="1" stop-color="#002A3C"></stop></linearGradient><linearGradient id="paint1_linear_319_4083" x1="70.6596" y1="123.409" x2="130.907" y2="123.409" gradientUnits="userSpaceOnUse"><stop stop-color="#86CABC"></stop><stop offset="0.36" stop-color="#6DCAD5"></stop><stop offset="1" stop-color="#00A99D"></stop></linearGradient><linearGradient id="paint2_linear_319_4083" x1="76.1909" y1="146.613" x2="101.36" y2="146.613" gradientUnits="userSpaceOnUse"><stop offset="0.06" stop-color="#002A3C"></stop><stop offset="0.17" stop-color="#1C4557"></stop><stop offset="0.35" stop-color="#436B7B"></stop><stop offset="0.52" stop-color="#618998"></stop><stop offset="0.69" stop-color="#779EAD"></stop><stop offset="0.85" stop-color="#84ABB9"></stop><stop offset="1" stop-color="#89B0BE"></stop></linearGradient><clipPath id="clip0_319_4083"><rect width="454" height="379" fill="white" transform="translate(0.989746 0.0463867)"></rect></clipPath></defs></svg>