<svg width="32" height="32" viewBox="0 0 32 32" fill="none" xmlns="http://www.w3.org/2000/svg">
<g clip-path="url(#clip0_2_213)">
<path d="M16 31.9996C24.8365 31.9996 32 24.8361 32 15.9996C32 7.16307 24.8365 -0.000366211 16 -0.000366211C7.16344 -0.000366211 0 7.16307 0 15.9996C0 18.5592 0.600992 20.9782 1.66954 23.1236C1.9535 23.6937 2.04802 24.3454 1.88339 24.9606L0.930416 28.5224C0.51672 30.0684 1.93122 31.4828 3.47736 31.0692L7.03902 30.1163C7.65429 29.9516 8.30594 30.0462 8.87605 30.33C11.0214 31.3987 13.4405 31.9996 16 31.9996Z" fill="#1FBF3A"/>
<g clip-path="url(#clip1_2_213)">
<path d="M6.1 14.8996H7.2V21.4996H6.1C5.9555 21.4998 5.81238 21.4714 5.67884 21.4162C5.54531 21.361 5.42398 21.28 5.3218 21.1778C5.21962 21.0756 5.1386 20.9543 5.08338 20.8207C5.02816 20.6872 4.99983 20.5441 5 20.3996V15.9996C4.99983 15.8551 5.02816 15.712 5.08338 15.5784C5.1386 15.4449 5.21962 15.3236 5.3218 15.2214C5.42398 15.1192 5.54531 15.0382 5.67884 14.983C5.81238 14.9277 5.9555 14.8994 6.1 14.8996ZM23.7 13.2496V22.5996C23.6994 23.1829 23.4675 23.7421 23.055 24.1546C22.6425 24.567 22.0833 24.799 21.5 24.7996H10.5C9.9167 24.799 9.35746 24.567 8.945 24.1546C8.53255 23.7421 8.30058 23.1829 8.3 22.5996V13.2496C8.29988 12.8884 8.37093 12.5308 8.50909 12.1971C8.64725 11.8634 8.84981 11.5602 9.1052 11.3048C9.36058 11.0494 9.66378 10.8468 9.99748 10.7087C10.3312 10.5705 10.6888 10.4995 11.05 10.4996H14.9V8.29958C14.9 8.00785 15.0159 7.72806 15.2222 7.52177C15.4285 7.31548 15.7083 7.19958 16 7.19958C16.2917 7.19958 16.5715 7.31548 16.7778 7.52177C16.9841 7.72806 17.1 8.00785 17.1 8.29958V10.4996H20.95C21.3112 10.4995 21.6688 10.5705 22.0025 10.7087C22.3362 10.8468 22.6394 11.0494 22.8948 11.3048C23.1502 11.5602 23.3527 11.8634 23.4909 12.1971C23.6291 12.5308 23.7001 12.8884 23.7 13.2496ZM14.075 15.9996C14.075 15.7276 13.9944 15.4618 13.8433 15.2357C13.6922 15.0096 13.4774 14.8333 13.2262 14.7292C12.9749 14.6252 12.6985 14.5979 12.4318 14.651C12.165 14.7041 11.92 14.835 11.7277 15.0273C11.5354 15.2196 11.4045 15.4646 11.3514 15.7313C11.2984 15.9981 11.3256 16.2745 11.4297 16.5258C11.5337 16.777 11.71 16.9918 11.9361 17.1429C12.1622 17.2939 12.4281 17.3746 12.7 17.3746C12.8806 17.3746 13.0594 17.339 13.2262 17.2699C13.393 17.2009 13.5446 17.0996 13.6723 16.9719C13.8 16.8442 13.9013 16.6926 13.9704 16.5258C14.0395 16.359 14.075 16.1802 14.075 15.9996ZM13.8 20.3996H11.6V21.4996H13.8V20.3996ZM17.1 20.3996H14.9V21.4996H17.1V20.3996ZM20.675 15.9996C20.675 15.7276 20.5944 15.4618 20.4433 15.2357C20.2922 15.0096 20.0774 14.8333 19.8262 14.7292C19.5749 14.6252 19.2985 14.5979 19.0318 14.651C18.765 14.7041 18.52 14.835 18.3277 15.0273C18.1354 15.2196 18.0045 15.4646 17.9514 15.7313C17.8984 15.9981 17.9256 16.2745 18.0297 16.5258C18.1337 16.777 18.31 16.9918 18.5361 17.1429C18.7622 17.2939 19.0281 17.3746 19.3 17.3746C19.4806 17.3746 19.6594 17.339 19.8262 17.2699C19.993 17.2009 20.1446 17.0996 20.2723 16.9719C20.4 16.8442 20.5013 16.6926 20.5704 16.5258C20.6395 16.359 20.675 16.1802 20.675 15.9996ZM20.4 20.3996H18.2V21.4996H20.4V20.3996ZM27 15.9996V20.3996C27.0002 20.5441 26.9718 20.6872 26.9166 20.8207C26.8614 20.9543 26.7804 21.0756 26.6782 21.1778C26.576 21.28 26.4547 21.361 26.3212 21.4162C26.1876 21.4714 26.0445 21.4998 25.9 21.4996H24.8V14.8996H25.9C26.0445 14.8994 26.1876 14.9277 26.3212 14.983C26.4547 15.0382 26.576 15.1192 26.6782 15.2214C26.7804 15.3236 26.8614 15.4449 26.9166 15.5784C26.9718 15.712 27.0002 15.8551 27 15.9996Z" fill="white"/>
</g>
</g>
<defs>
<clipPath id="clip0_2_213">
<rect width="32" height="32" fill="white"/>
</clipPath>
<clipPath id="clip1_2_213">
<rect width="22" height="22" fill="white" transform="translate(5 4.99963)"/>
</clipPath>
</defs>
</svg>
