<svg width="155" height="32" viewBox="0 0 155 32" fill="none" xmlns="http://www.w3.org/2000/svg">
<path d="M26.3169 1.65084C28.1583 1.65084 29.6516 3.14348 29.6519 4.98482V27.0337C29.6516 28.875 28.1583 30.3676 26.3169 30.3676H4.26904C2.42784 30.3674 0.935294 28.8749 0.935059 27.0337V4.98482C0.935283 3.14361 2.42783 1.65106 4.26904 1.65084H26.3169ZM8.76611 22.7358L11.0942 24.6294C11.253 24.7585 11.3461 24.953 11.3462 25.1577V26.6928H12.5024L12.52 24.7602C12.5226 24.4706 12.3932 24.195 12.1685 24.0122L9.49658 21.8383L8.76611 22.7358ZM18.438 24.0122C18.2134 24.195 18.0848 24.4706 18.0874 24.7602L18.105 26.6928H19.2612V25.1577C19.2613 24.9532 19.3537 24.7595 19.5122 24.6303L21.8413 22.7358L21.1108 21.8383L18.438 24.0122ZM7.87549 19.9555C7.16169 19.9557 6.58277 20.5347 6.58252 21.2485C6.58252 21.9625 7.16154 22.5413 7.87549 22.5415C8.58943 22.5413 9.16846 21.9625 9.16846 21.2485C9.16821 20.5347 8.58927 19.9557 7.87549 19.9555ZM22.7319 19.9555C22.0181 19.9557 21.4392 20.5347 21.439 21.2485C21.439 21.9625 22.018 22.5413 22.7319 22.5415C23.4459 22.5413 24.0249 21.9625 24.0249 21.2485C24.0247 20.5347 23.4457 19.9557 22.7319 19.9555ZM7.87549 20.5678C8.25103 20.568 8.55591 20.873 8.55615 21.2485C8.55615 21.6242 8.25119 21.929 7.87549 21.9292C7.49978 21.929 7.19482 21.6242 7.19482 21.2485C7.19507 20.873 7.49993 20.568 7.87549 20.5678ZM22.7319 20.5678C23.1075 20.568 23.4123 20.873 23.4126 21.2485C23.4126 21.6242 23.1076 21.929 22.7319 21.9292C22.3562 21.929 22.0513 21.6242 22.0513 21.2485C22.0515 20.873 22.3564 20.568 22.7319 20.5678ZM15.3149 5.25728C14.7138 5.25742 14.2262 5.74498 14.2261 6.34615C14.2261 6.77649 14.476 7.1489 14.8384 7.32564V8.73775C11.493 8.88582 8.71051 10.7018 7.80225 13.1508H7.48877C7.00042 13.151 6.6041 13.5472 6.604 14.0356V16.0776C6.60427 16.5658 7.00053 16.9612 7.48877 16.9614H7.94287C9.02054 19.3414 11.8991 21.0443 15.2808 21.0444C18.6624 21.0443 21.541 19.3414 22.6187 16.9614H23.0718C23.5602 16.9614 23.9563 16.5659 23.9565 16.0776V14.0356C23.9564 13.5471 23.5603 13.1508 23.0718 13.1508H22.7583C21.8561 10.7185 19.1055 8.9101 15.7905 8.74068V7.32564C16.1531 7.14895 16.4028 6.77659 16.4028 6.34615C16.4028 5.74505 15.916 5.25752 15.3149 5.25728ZM18.5464 11.8579C20.0308 11.8579 21.2348 13.0619 21.2349 14.5463C21.2347 16.0307 20.0308 17.2338 18.5464 17.2338H11.9458C10.4617 17.2336 9.25849 16.0305 9.2583 14.5463C9.25838 13.0621 10.4616 11.8582 11.9458 11.8579H18.5464ZM13.0347 13.1508C12.2645 13.1511 11.6402 13.7761 11.6401 14.5463C11.6403 15.3165 12.2646 15.9406 13.0347 15.9409C13.805 15.9409 14.43 15.3166 14.4302 14.5463C14.4301 13.776 13.8051 13.1508 13.0347 13.1508ZM17.5942 13.1508C16.824 13.151 16.1988 13.7761 16.1987 14.5463C16.1989 15.3165 16.824 15.9407 17.5942 15.9409C18.3645 15.9408 18.9886 15.3166 18.9888 14.5463C18.9887 13.776 18.3646 13.1509 17.5942 13.1508Z" fill="url(#paint0_linear_1_637)"/>
<path d="M74.698 12.7577V14.7948H68.8096V12.7577H74.698ZM70.1464 10.4151H72.8583V19.5309C72.8583 19.7813 72.8965 19.9765 72.9728 20.1166C73.0492 20.2524 73.1553 20.3479 73.2911 20.403C73.4312 20.4582 73.5925 20.4858 73.7749 20.4858C73.9023 20.4858 74.0296 20.4752 74.1569 20.454C74.2842 20.4285 74.3818 20.4094 74.4497 20.3967L74.8762 22.4146C74.7404 22.4571 74.5495 22.5059 74.3033 22.561C74.0572 22.6205 73.758 22.6565 73.4057 22.6693C72.7522 22.6947 72.1792 22.6077 71.6869 22.4083C71.1989 22.2088 70.8191 21.899 70.5475 21.4789C70.2758 21.0587 70.1422 20.5282 70.1464 19.8874V10.4151Z" fill="#0E3164"/>
<path d="M61.8867 22.7202C61.2629 22.7202 60.7069 22.612 60.2189 22.3955C59.7308 22.1748 59.3446 21.8502 59.0603 21.4216C58.7802 20.9887 58.6401 20.4497 58.6401 19.8046C58.6401 19.2614 58.7399 18.8052 58.9393 18.436C59.1388 18.0668 59.4104 17.7697 59.7542 17.5448C60.0979 17.3199 60.4884 17.1501 60.9255 17.0355C61.3669 16.9209 61.8294 16.8403 62.3132 16.7936C62.8819 16.7342 63.3403 16.679 63.6883 16.6281C64.0363 16.5729 64.2888 16.4923 64.4458 16.3862C64.6028 16.2801 64.6813 16.1231 64.6813 15.9151V15.8769C64.6813 15.4738 64.554 15.1619 64.2994 14.9412C64.049 14.7205 63.6925 14.6102 63.2299 14.6102C62.7419 14.6102 62.3536 14.7184 62.065 14.9348C61.7764 15.147 61.5854 15.4144 61.492 15.7369L58.9839 15.5332C59.1112 14.9391 59.3616 14.4255 59.7351 13.9927C60.1085 13.5556 60.5902 13.2203 61.1801 12.9869C61.7743 12.7492 62.4618 12.6304 63.2427 12.6304C63.7859 12.6304 64.3058 12.694 64.8023 12.8214C65.3031 12.9487 65.7466 13.146 66.1328 13.4134C66.5232 13.6807 66.8309 14.0245 67.0558 14.4446C67.2807 14.8605 67.3932 15.3592 67.3932 15.9406V22.5356H64.8214V21.1797H64.745C64.588 21.4852 64.3779 21.7547 64.1148 21.9881C63.8517 22.2173 63.5355 22.3976 63.1663 22.5292C62.7971 22.6565 62.3705 22.7202 61.8867 22.7202ZM62.6634 20.8486C63.0623 20.8486 63.4145 20.7701 63.7201 20.6131C64.0257 20.4518 64.2654 20.2354 64.4394 19.9638C64.6134 19.6922 64.7004 19.3845 64.7004 19.0407V18.0031C64.6156 18.0583 64.4989 18.1092 64.3503 18.1559C64.206 18.1983 64.0426 18.2387 63.8601 18.2769C63.6777 18.3108 63.4952 18.3426 63.3127 18.3723C63.1302 18.3978 62.9647 18.4211 62.8161 18.4424C62.4979 18.489 62.2199 18.5633 61.9822 18.6652C61.7446 18.767 61.5599 18.9049 61.4284 19.0789C61.2968 19.2487 61.231 19.4609 61.231 19.7155C61.231 20.0847 61.3647 20.367 61.6321 20.5622C61.9037 20.7531 62.2475 20.8486 62.6634 20.8486Z" fill="#0E3164"/>
<path d="M50.624 16.8827V22.5356H47.9121V9.49842H50.5476V14.4828H50.6622C50.8828 13.9057 51.2393 13.4537 51.7316 13.1269C52.2239 12.7959 52.8414 12.6304 53.5841 12.6304C54.2631 12.6304 54.8552 12.7789 55.3602 13.076C55.8694 13.3688 56.2641 13.7911 56.5442 14.3428C56.8286 14.8903 56.9686 15.5459 56.9644 16.3098V22.5356H54.2525V16.7936C54.2568 16.191 54.104 15.7221 53.7942 15.3868C53.4886 15.0515 53.06 14.8839 52.5083 14.8839C52.139 14.8839 51.8123 14.9624 51.5279 15.1194C51.2478 15.2764 51.0271 15.5056 50.8659 15.8069C50.7088 16.104 50.6282 16.4626 50.624 16.8827Z" fill="#0E3164"/>
<path d="M45.9867 14.0627H43.1984C43.1475 13.702 43.0435 13.3816 42.8865 13.1015C42.7295 12.8171 42.5279 12.5752 42.2818 12.3758C42.0356 12.1763 41.7513 12.0235 41.4287 11.9174C41.1104 11.8113 40.7646 11.7583 40.3911 11.7583C39.7163 11.7583 39.1285 11.9259 38.6277 12.2612C38.127 12.5922 37.7386 13.076 37.4628 13.7126C37.1869 14.3449 37.049 15.1131 37.049 16.017C37.049 16.9464 37.1869 17.7273 37.4628 18.3596C37.7429 18.992 38.1333 19.4694 38.6341 19.7919C39.1349 20.1145 39.7142 20.2757 40.372 20.2757C40.7412 20.2757 41.0829 20.2269 41.3969 20.1293C41.7152 20.0317 41.9974 19.8895 42.2436 19.7028C42.4897 19.5118 42.6934 19.2805 42.8547 19.0089C43.0202 18.7373 43.1348 18.4275 43.1984 18.0795L45.9867 18.0923C45.9145 18.6906 45.7342 19.2678 45.4456 19.8238C45.1613 20.3755 44.7772 20.8699 44.2934 21.307C43.8138 21.7399 43.2409 22.0836 42.5746 22.3382C41.9125 22.5886 41.1635 22.7138 40.3274 22.7138C39.1646 22.7138 38.1248 22.4507 37.2082 21.9245C36.2957 21.3982 35.5743 20.6365 35.0438 19.6391C34.5175 18.6418 34.2544 17.4345 34.2544 16.017C34.2544 14.5953 34.5218 13.3858 35.0565 12.3885C35.5912 11.3912 36.3169 10.6315 37.2336 10.1095C38.1503 9.5833 39.1816 9.32018 40.3274 9.32018C41.0829 9.32018 41.7831 9.42628 42.4282 9.63847C43.0775 9.85067 43.6525 10.1605 44.1533 10.5679C44.6541 10.971 45.0615 11.4655 45.3756 12.0511C45.6939 12.6368 45.8976 13.3073 45.9867 14.0627Z" fill="#0E3164"/>
<path d="M141.623 22.5356V12.7577H144.252V14.4637H144.354C144.532 13.8569 144.831 13.3985 145.251 13.0887C145.671 12.7747 146.155 12.6177 146.703 12.6177C146.838 12.6177 146.985 12.6262 147.142 12.6431C147.299 12.6601 147.437 12.6834 147.556 12.7132V15.1194C147.428 15.0812 147.252 15.0473 147.027 15.0176C146.802 14.9879 146.596 14.973 146.41 14.973C146.011 14.973 145.654 15.06 145.34 15.234C145.03 15.4038 144.784 15.6414 144.602 15.947C144.424 16.2525 144.334 16.6048 144.334 17.0037V22.5356H141.623Z" fill="#1975E3"/>
<path d="M135.365 22.7265C134.359 22.7265 133.493 22.5228 132.768 22.1154C132.046 21.7038 131.49 21.1224 131.1 20.3712C130.709 19.6158 130.514 18.7225 130.514 17.6912C130.514 16.6854 130.709 15.8027 131.1 15.043C131.49 14.2834 132.04 13.6914 132.749 13.267C133.462 12.8426 134.298 12.6304 135.257 12.6304C135.902 12.6304 136.502 12.7344 137.058 12.9423C137.618 13.146 138.107 13.4537 138.522 13.8654C138.943 14.277 139.269 14.7948 139.503 15.4186C139.736 16.0382 139.853 16.7639 139.853 17.5957V18.3405H131.596V16.6599H137.3C137.3 16.2695 137.215 15.9236 137.046 15.6223C136.876 15.321 136.64 15.0855 136.339 14.9157C136.042 14.7417 135.696 14.6547 135.301 14.6547C134.89 14.6547 134.525 14.7502 134.206 14.9412C133.892 15.1279 133.646 15.3804 133.468 15.6987C133.29 16.0127 133.198 16.3629 133.194 16.7491V18.3469C133.194 18.8307 133.283 19.2487 133.462 19.6009C133.644 19.9532 133.901 20.2248 134.232 20.4158C134.563 20.6067 134.955 20.7022 135.41 20.7022C135.711 20.7022 135.987 20.6598 136.237 20.5749C136.487 20.49 136.702 20.3627 136.88 20.193C137.058 20.0232 137.194 19.8153 137.287 19.5691L139.796 19.7346C139.668 20.3372 139.407 20.8635 139.013 21.3133C138.622 21.7589 138.117 22.1069 137.498 22.3573C136.882 22.6035 136.171 22.7265 135.365 22.7265Z" fill="#1975E3"/>
<path d="M129.247 12.7577V14.7948H123.359V12.7577H129.247ZM124.696 10.4151H127.408V19.5309C127.408 19.7813 127.446 19.9765 127.522 20.1166C127.599 20.2524 127.705 20.3479 127.84 20.403C127.981 20.4582 128.142 20.4858 128.324 20.4858C128.452 20.4858 128.579 20.4752 128.706 20.454C128.834 20.4285 128.931 20.4094 128.999 20.3967L129.426 22.4146C129.29 22.4571 129.099 22.5059 128.853 22.561C128.606 22.6205 128.307 22.6565 127.955 22.6693C127.301 22.6947 126.729 22.6077 126.236 22.4083C125.748 22.2088 125.368 21.899 125.097 21.4789C124.825 21.0587 124.691 20.5282 124.696 19.8874V10.4151Z" fill="#1975E3"/>
<path d="M116.221 22.5356V12.7577H118.85V14.4637H118.952C119.13 13.8569 119.43 13.3985 119.85 13.0887C120.27 12.7747 120.754 12.6177 121.301 12.6177C121.437 12.6177 121.583 12.6262 121.74 12.6431C121.897 12.6601 122.035 12.6834 122.154 12.7132V15.1194C122.027 15.0812 121.851 15.0473 121.626 15.0176C121.401 14.9879 121.195 14.973 121.008 14.973C120.609 14.973 120.253 15.06 119.939 15.234C119.629 15.4038 119.383 15.6414 119.2 15.947C119.022 16.2525 118.933 16.6048 118.933 17.0037V22.5356H116.221Z" fill="#1975E3"/>
<path d="M108.611 22.7202C107.987 22.7202 107.431 22.612 106.943 22.3955C106.455 22.1748 106.069 21.8502 105.784 21.4216C105.504 20.9887 105.364 20.4497 105.364 19.8046C105.364 19.2614 105.464 18.8052 105.663 18.436C105.863 18.0668 106.135 17.7697 106.478 17.5448C106.822 17.3199 107.212 17.1501 107.65 17.0355C108.091 16.9209 108.554 16.8403 109.037 16.7936C109.606 16.7342 110.064 16.679 110.412 16.6281C110.76 16.5729 111.013 16.4923 111.17 16.3862C111.327 16.2801 111.405 16.1231 111.405 15.9151V15.8769C111.405 15.4738 111.278 15.1619 111.024 14.9412C110.773 14.7205 110.417 14.6102 109.954 14.6102C109.466 14.6102 109.078 14.7184 108.789 14.9348C108.501 15.147 108.31 15.4144 108.216 15.7369L105.708 15.5332C105.835 14.9391 106.086 14.4255 106.459 13.9927C106.833 13.5556 107.314 13.2203 107.904 12.9869C108.498 12.7492 109.186 12.6304 109.967 12.6304C110.51 12.6304 111.03 12.694 111.526 12.8214C112.027 12.9487 112.471 13.146 112.857 13.4134C113.247 13.6807 113.555 14.0245 113.78 14.4446C114.005 14.8605 114.117 15.3592 114.117 15.9406V22.5356H111.546V21.1797H111.469C111.312 21.4852 111.102 21.7547 110.839 21.9881C110.576 22.2173 110.26 22.3976 109.89 22.5292C109.521 22.6565 109.095 22.7202 108.611 22.7202ZM109.387 20.8486C109.786 20.8486 110.139 20.7701 110.444 20.6131C110.75 20.4518 110.99 20.2354 111.164 19.9638C111.338 19.6922 111.425 19.3845 111.425 19.0407V18.0031C111.34 18.0583 111.223 18.1092 111.074 18.1559C110.93 18.1983 110.767 18.2387 110.584 18.2769C110.402 18.3108 110.219 18.3426 110.037 18.3723C109.854 18.3978 109.689 18.4211 109.54 18.4424C109.222 18.489 108.944 18.5633 108.706 18.6652C108.469 18.767 108.284 18.9049 108.153 19.0789C108.021 19.2487 107.955 19.4609 107.955 19.7155C107.955 20.0847 108.089 20.367 108.356 20.5622C108.628 20.7531 108.972 20.8486 109.387 20.8486Z" fill="#1975E3"/>
<path d="M89.4717 22.5356V12.7577H92.0562V14.4828H92.1708C92.3745 13.9099 92.714 13.4579 93.1893 13.1269C93.6647 12.7959 94.2333 12.6304 94.8954 12.6304C95.5659 12.6304 96.1367 12.798 96.6078 13.1333C97.0789 13.4643 97.3929 13.9142 97.55 14.4828H97.6518C97.8513 13.9226 98.212 13.4749 98.734 13.1397C99.2603 12.8001 99.882 12.6304 100.599 12.6304C101.512 12.6304 102.252 12.9211 102.821 13.5025C103.394 14.0797 103.68 14.8987 103.68 15.9597V22.5356H100.975V16.4944C100.975 15.9512 100.831 15.5438 100.542 15.2722C100.253 15.0006 99.8926 14.8648 99.4597 14.8648C98.9674 14.8648 98.5834 15.0218 98.3075 15.3359C98.0317 15.6457 97.8937 16.0552 97.8937 16.5645V22.5356H95.2646V16.4371C95.2646 15.9576 95.1267 15.5756 94.8508 15.2913C94.5792 15.007 94.2206 14.8648 93.775 14.8648C93.4737 14.8648 93.2021 14.9412 92.9602 15.094C92.7225 15.2425 92.5337 15.4526 92.3936 15.7242C92.2536 15.9915 92.1835 16.3056 92.1835 16.6663V22.5356H89.4717Z" fill="#1975E3"/>
<path d="M84.8486 13.2479C84.7977 12.7344 84.5791 12.3355 84.1929 12.0511C83.8067 11.7668 83.2826 11.6246 82.6205 11.6246C82.1707 11.6246 81.7908 11.6883 81.481 11.8156C81.1712 11.9387 80.9336 12.1105 80.7681 12.3312C80.6068 12.5519 80.5262 12.8023 80.5262 13.0824C80.5177 13.3158 80.5665 13.5195 80.6726 13.6935C80.7829 13.8675 80.9336 14.0181 81.1246 14.1455C81.3155 14.2685 81.5362 14.3768 81.7866 14.4701C82.037 14.5592 82.3044 14.6356 82.5887 14.6993L83.76 14.9794C84.3287 15.1067 84.8507 15.2765 85.326 15.4886C85.8013 15.7008 86.213 15.9618 86.561 16.2716C86.909 16.5814 87.1785 16.9464 87.3695 17.3666C87.5647 17.7867 87.6644 18.2684 87.6687 18.8116C87.6644 19.6094 87.4607 20.3012 87.0575 20.8868C86.6586 21.4683 86.0814 21.9202 85.326 22.2428C84.5749 22.561 83.6688 22.7202 82.6078 22.7202C81.5553 22.7202 80.6386 22.5589 79.8577 22.2364C79.0811 21.9139 78.4742 21.4364 78.0371 20.8041C77.6042 20.1675 77.3772 19.3803 77.356 18.4424H80.0233C80.053 18.8795 80.1782 19.2445 80.3988 19.5373C80.6238 19.8259 80.923 20.0444 81.2964 20.193C81.6741 20.3373 82.1007 20.4094 82.576 20.4094C83.0428 20.4094 83.4481 20.3415 83.7919 20.2057C84.1399 20.0699 84.4093 19.881 84.6003 19.6391C84.7913 19.3972 84.8868 19.1193 84.8868 18.8052C84.8868 18.5124 84.7998 18.2663 84.6258 18.0668C84.456 17.8673 84.2056 17.6976 83.8746 17.5575C83.5478 17.4175 83.1468 17.2902 82.6715 17.1756L81.2519 16.8191C80.1527 16.5517 79.2848 16.1337 78.6482 15.565C78.0116 14.9964 77.6955 14.2303 77.6997 13.267C77.6955 12.4776 77.9055 11.788 78.3299 11.1981C78.7586 10.6082 79.3464 10.1477 80.0933 9.81672C80.8402 9.48569 81.689 9.32018 82.6396 9.32018C83.6072 9.32018 84.4518 9.48569 85.1732 9.81672C85.899 10.1477 86.4634 10.6082 86.8666 11.1981C87.2697 11.788 87.4777 12.4713 87.4904 13.2479H84.8486Z" fill="#1975E3"/>
<defs>
<linearGradient id="paint0_linear_1_637" x1="15.2935" y1="1.65084" x2="15.2935" y2="30.3676" gradientUnits="userSpaceOnUse">
<stop stop-color="#2376FB"/>
<stop offset="1" stop-color="#2376FB"/>
</linearGradient>
</defs>
</svg>
