<svg xmlns="http://www.w3.org/2000/svg" width="600" height="136" viewBox="0 0 600 136" fill="none"><rect x="0.5" y="0.5" width="599" height="63" rx="31.5" fill="white"></rect><rect x="0.5" y="0.5" width="599" height="63" rx="31.5" stroke="#C4C4C4"></rect><path d="M35.875 38.6562C36.0312 38.8125 36.0312 39.0625 35.875 39.1875L35.1562 39.9062C35.0312 40.0625 34.7812 40.0625 34.625 39.9062L30.8438 36.125C30.7812 36.0312 30.75 35.9375 30.75 35.8438V35.4375C29.5938 36.4062 28.125 37 26.5 37C22.9062 37 20 34.0938 20 30.5C20 26.9375 22.9062 24 26.5 24C30.0625 24 33 26.9375 33 30.5C33 32.125 32.375 33.625 31.4062 34.75H31.8125C31.9062 34.75 32 34.8125 32.0938 34.875L35.875 38.6562ZM26.5 35.5C29.25 35.5 31.5 33.2812 31.5 30.5C31.5 27.75 29.25 25.5 26.5 25.5C23.7188 25.5 21.5 27.75 21.5 30.5C21.5 33.2812 23.7188 35.5 26.5 35.5Z" fill="black"></path><path d="M52.736 38.628C51.5307 38.628 50.576 38.356 49.872 37.812C49.1787 37.268 48.832 36.5427 48.832 35.636V35.14C48.832 35.0333 48.8853 34.98 48.992 34.98H49.776C49.8827 34.98 49.936 35.0333 49.936 35.14V35.572C49.936 36.1907 50.192 36.692 50.704 37.076C51.216 37.4493 51.9253 37.636 52.832 37.636C53.6533 37.636 54.2773 37.4653 54.704 37.124C55.1307 36.772 55.344 36.308 55.344 35.732C55.344 35.3587 55.2427 35.0387 55.04 34.772C54.848 34.5053 54.544 34.2547 54.128 34.02C53.7227 33.7853 53.1467 33.5133 52.4 33.204C51.6 32.884 50.976 32.6067 50.528 32.372C50.0907 32.1267 49.7333 31.8173 49.456 31.444C49.1893 31.06 49.056 30.58 49.056 30.004C49.056 29.108 49.3653 28.4147 49.984 27.924C50.6133 27.4227 51.472 27.172 52.56 27.172C53.744 27.172 54.6773 27.4493 55.36 28.004C56.0427 28.5587 56.384 29.2947 56.384 30.212V30.564C56.384 30.6707 56.3307 30.724 56.224 30.724H55.424C55.3173 30.724 55.264 30.6707 55.264 30.564V30.276C55.264 29.6573 55.0187 29.1507 54.528 28.756C54.048 28.3613 53.376 28.164 52.512 28.164C51.7547 28.164 51.1733 28.3187 50.768 28.628C50.3627 28.9373 50.16 29.3853 50.16 29.972C50.16 30.356 50.256 30.676 50.448 30.932C50.6507 31.1773 50.9333 31.396 51.296 31.588C51.6693 31.7693 52.24 32.0093 53.008 32.308C53.7867 32.628 54.4107 32.9267 54.88 33.204C55.36 33.4813 55.744 33.8227 56.032 34.228C56.3307 34.6227 56.48 35.108 56.48 35.684C56.48 36.58 56.1493 37.2947 55.488 37.828C54.8267 38.3613 53.9093 38.628 52.736 38.628ZM64.8318 33.092C64.8744 33.3907 64.8958 33.764 64.8958 34.212V34.724C64.8958 34.8307 64.8424 34.884 64.7358 34.884H59.5678C59.5251 34.884 59.5038 34.9053 59.5038 34.948C59.5251 35.5347 59.5571 35.9133 59.5998 36.084C59.7171 36.564 59.9678 36.9427 60.3518 37.22C60.7358 37.4973 61.2264 37.636 61.8238 37.636C62.2718 37.636 62.6664 37.5347 63.0078 37.332C63.3491 37.1293 63.6158 36.8413 63.8078 36.468C63.8718 36.372 63.9464 36.3507 64.0318 36.404L64.6558 36.772C64.7411 36.8253 64.7624 36.9 64.7198 36.996C64.4531 37.508 64.0531 37.9133 63.5198 38.212C62.9864 38.5 62.3731 38.644 61.6798 38.644C60.9224 38.6333 60.2878 38.452 59.7758 38.1C59.2638 37.748 58.8958 37.2573 58.6718 36.628C58.4798 36.116 58.3838 35.38 58.3838 34.42C58.3838 33.972 58.3891 33.6093 58.3997 33.332C58.4211 33.044 58.4638 32.788 58.5278 32.564C58.7091 31.8707 59.0718 31.316 59.6158 30.9C60.1704 30.484 60.8371 30.276 61.6158 30.276C62.5864 30.276 63.3331 30.5213 63.8558 31.012C64.3784 31.5027 64.7038 32.196 64.8318 33.092ZM61.6158 31.268C61.0931 31.268 60.6558 31.4067 60.3038 31.684C59.9624 31.9507 59.7384 32.3133 59.6318 32.772C59.5678 32.996 59.5251 33.3587 59.5038 33.86C59.5038 33.9027 59.5251 33.924 59.5678 33.924H63.7118C63.7544 33.924 63.7758 33.9027 63.7758 33.86C63.7544 33.38 63.7224 33.0387 63.6798 32.836C63.5624 32.356 63.3224 31.9773 62.9598 31.7C62.6078 31.412 62.1598 31.268 61.6158 31.268ZM69.8769 30.276C70.8369 30.276 71.5782 30.5213 72.1009 31.012C72.6235 31.5027 72.8849 32.1533 72.8849 32.964V38.34C72.8849 38.4467 72.8315 38.5 72.7249 38.5H71.9089C71.8022 38.5 71.7489 38.4467 71.7489 38.34V37.684C71.7489 37.6627 71.7382 37.6467 71.7169 37.636C71.7062 37.6253 71.6902 37.6307 71.6689 37.652C71.4022 37.972 71.0555 38.2173 70.6289 38.388C70.2022 38.548 69.7275 38.628 69.2049 38.628C68.4475 38.628 67.8129 38.436 67.3009 38.052C66.7889 37.668 66.5329 37.0813 66.5329 36.292C66.5329 35.492 66.8209 34.8627 67.3969 34.404C67.9835 33.9347 68.7942 33.7 69.8289 33.7H71.6849C71.7275 33.7 71.7489 33.6787 71.7489 33.636V33.028C71.7489 32.484 71.5942 32.0573 71.2849 31.748C70.9862 31.428 70.5169 31.268 69.8769 31.268C69.3649 31.268 68.9489 31.3693 68.6289 31.572C68.3089 31.764 68.1115 32.036 68.0369 32.388C68.0049 32.4947 67.9409 32.5427 67.8449 32.532L66.9809 32.42C66.8635 32.3987 66.8155 32.356 66.8369 32.292C66.9222 31.6947 67.2422 31.2093 67.7969 30.836C68.3515 30.4627 69.0449 30.276 69.8769 30.276ZM69.4289 37.652C70.0582 37.652 70.6022 37.4973 71.0609 37.188C71.5195 36.868 71.7489 36.4413 71.7489 35.908V34.66C71.7489 34.6173 71.7275 34.596 71.6849 34.596H70.0049C69.3009 34.596 68.7355 34.74 68.3089 35.028C67.8822 35.316 67.6689 35.716 67.6689 36.228C67.6689 36.6973 67.8289 37.0547 68.1489 37.3C68.4795 37.5347 68.9062 37.652 69.4289 37.652ZM78.5128 30.324C78.8648 30.324 79.1688 30.3933 79.4248 30.532C79.5101 30.5747 79.5421 30.644 79.5208 30.74L79.3448 31.524C79.3128 31.6307 79.2434 31.6627 79.1368 31.62C78.9554 31.5453 78.7474 31.508 78.5128 31.508L78.3048 31.524C77.7501 31.5453 77.2914 31.7533 76.9288 32.148C76.5661 32.532 76.3848 33.0227 76.3848 33.62V38.34C76.3848 38.4467 76.3314 38.5 76.2248 38.5H75.4088C75.3021 38.5 75.2488 38.4467 75.2488 38.34V30.564C75.2488 30.4573 75.3021 30.404 75.4088 30.404H76.2248C76.3314 30.404 76.3848 30.4573 76.3848 30.564V31.54C76.3848 31.572 76.3901 31.5933 76.4008 31.604C76.4221 31.604 76.4381 31.5933 76.4488 31.572C76.6728 31.1773 76.9554 30.8733 77.2968 30.66C77.6488 30.436 78.0541 30.324 78.5128 30.324ZM84.0548 38.628C83.2868 38.628 82.6254 38.4307 82.0707 38.036C81.5268 37.6307 81.1534 37.0867 80.9508 36.404C80.8121 35.9347 80.7428 35.2733 80.7428 34.42C80.7428 33.652 80.8121 33.0013 80.9508 32.468C81.1428 31.8067 81.5161 31.2787 82.0707 30.884C82.6254 30.4787 83.2868 30.276 84.0548 30.276C84.8334 30.276 85.5054 30.4733 86.0708 30.868C86.6468 31.2627 87.0201 31.7533 87.1908 32.34C87.2441 32.532 87.2761 32.692 87.2868 32.82V32.852C87.2868 32.9267 87.2388 32.9747 87.1428 32.996L86.3428 33.108H86.3108C86.2361 33.108 86.1881 33.06 86.1668 32.964L86.1188 32.724C86.0228 32.3187 85.7881 31.9773 85.4148 31.7C85.0414 31.412 84.5881 31.268 84.0548 31.268C83.5214 31.268 83.0734 31.412 82.7108 31.7C82.3588 31.9773 82.1294 32.3507 82.0228 32.82C81.9268 33.2253 81.8788 33.764 81.8788 34.436C81.8788 35.14 81.9268 35.684 82.0228 36.068C82.1294 36.548 82.3588 36.932 82.7108 37.22C83.0734 37.4973 83.5214 37.636 84.0548 37.636C84.5774 37.636 85.0254 37.5027 85.3988 37.236C85.7828 36.9587 86.0228 36.6067 86.1188 36.18V36.116L86.1348 36.052C86.1454 35.9453 86.2094 35.9027 86.3268 35.924L87.1108 36.052C87.2174 36.0733 87.2654 36.132 87.2548 36.228L87.1908 36.548C87.0308 37.1667 86.6628 37.668 86.0868 38.052C85.5108 38.436 84.8334 38.628 84.0548 38.628ZM92.6713 30.292C93.5246 30.292 94.2019 30.5427 94.7033 31.044C95.2153 31.5453 95.4713 32.2173 95.4713 33.06V38.34C95.4713 38.4467 95.4179 38.5 95.3113 38.5H94.4953C94.3886 38.5 94.3353 38.4467 94.3353 38.34V33.284C94.3353 32.6973 94.1539 32.2173 93.7913 31.844C93.4393 31.4707 92.9806 31.284 92.4153 31.284C91.8286 31.284 91.3539 31.4653 90.9913 31.828C90.6286 32.1907 90.4473 32.6653 90.4473 33.252V38.34C90.4473 38.4467 90.3939 38.5 90.2873 38.5H89.4713C89.3646 38.5 89.3113 38.4467 89.3113 38.34V27.46C89.3113 27.3533 89.3646 27.3 89.4713 27.3H90.2873C90.3939 27.3 90.4473 27.3533 90.4473 27.46V31.252C90.4473 31.2733 90.4526 31.2893 90.4633 31.3C90.4846 31.3107 90.5006 31.3053 90.5113 31.284C90.9806 30.6227 91.7006 30.292 92.6713 30.292ZM104.227 38.628C103.459 38.628 102.798 38.4307 102.243 38.036C101.689 37.6413 101.305 37.0973 101.091 36.404C100.942 35.9133 100.867 35.2573 100.867 34.436C100.867 33.6147 100.942 32.964 101.091 32.484C101.294 31.8013 101.673 31.2627 102.227 30.868C102.782 30.4733 103.454 30.276 104.243 30.276C105.001 30.276 105.651 30.4733 106.195 30.868C106.75 31.2627 107.129 31.796 107.331 32.468C107.481 32.9267 107.555 33.5827 107.555 34.436C107.555 35.3 107.481 35.956 107.331 36.404C107.129 37.0973 106.75 37.6413 106.195 38.036C105.651 38.4307 104.995 38.628 104.227 38.628ZM104.227 37.636C104.739 37.636 105.177 37.4973 105.539 37.22C105.902 36.932 106.147 36.548 106.275 36.068C106.371 35.684 106.419 35.1453 106.419 34.452C106.419 33.748 106.377 33.2093 106.291 32.836C106.163 32.356 105.913 31.9773 105.539 31.7C105.177 31.412 104.734 31.268 104.211 31.268C103.689 31.268 103.246 31.412 102.883 31.7C102.521 31.9773 102.275 32.356 102.147 32.836C102.062 33.2093 102.019 33.748 102.019 34.452C102.019 35.156 102.062 35.6947 102.147 36.068C102.265 36.548 102.505 36.932 102.867 37.22C103.241 37.4973 103.694 37.636 104.227 37.636ZM113.122 30.324C113.474 30.324 113.778 30.3933 114.034 30.532C114.119 30.5747 114.151 30.644 114.13 30.74L113.954 31.524C113.922 31.6307 113.853 31.6627 113.746 31.62C113.565 31.5453 113.357 31.508 113.122 31.508L112.914 31.524C112.359 31.5453 111.901 31.7533 111.538 32.148C111.175 32.532 110.994 33.0227 110.994 33.62V38.34C110.994 38.4467 110.941 38.5 110.834 38.5H110.018C109.911 38.5 109.858 38.4467 109.858 38.34V30.564C109.858 30.4573 109.911 30.404 110.018 30.404H110.834C110.941 30.404 110.994 30.4573 110.994 30.564V31.54C110.994 31.572 110.999 31.5933 111.01 31.604C111.031 31.604 111.047 31.5933 111.058 31.572C111.282 31.1773 111.565 30.8733 111.906 30.66C112.258 30.436 112.663 30.324 113.122 30.324ZM122.521 31.188C122.521 31.2947 122.468 31.348 122.361 31.348H120.553C120.511 31.348 120.489 31.3693 120.489 31.412V36.132C120.489 36.644 120.601 37.0067 120.825 37.22C121.06 37.4227 121.423 37.524 121.913 37.524H122.313C122.42 37.524 122.473 37.5773 122.473 37.684V38.34C122.473 38.4467 122.42 38.5 122.313 38.5C122.185 38.5107 121.988 38.516 121.721 38.516C120.953 38.516 120.372 38.372 119.977 38.084C119.583 37.796 119.385 37.2627 119.385 36.484V31.412C119.385 31.3693 119.364 31.348 119.321 31.348H118.345C118.239 31.348 118.185 31.2947 118.185 31.188V30.564C118.185 30.4573 118.239 30.404 118.345 30.404H119.321C119.364 30.404 119.385 30.3827 119.385 30.34V28.484C119.385 28.3773 119.439 28.324 119.545 28.324H120.329C120.436 28.324 120.489 28.3773 120.489 28.484V30.34C120.489 30.3827 120.511 30.404 120.553 30.404H122.361C122.468 30.404 122.521 30.4573 122.521 30.564V31.188ZM124.35 41.7C124.275 41.7 124.238 41.6467 124.238 41.54V40.9C124.238 40.7933 124.291 40.74 124.398 40.74H124.462C124.878 40.7293 125.198 40.6653 125.422 40.548C125.656 40.4413 125.854 40.2333 126.014 39.924C126.184 39.6253 126.366 39.1667 126.558 38.548C126.579 38.5053 126.579 38.4733 126.558 38.452L123.854 30.58L123.838 30.516C123.838 30.4413 123.886 30.404 123.982 30.404H124.83C124.926 30.404 124.99 30.4467 125.022 30.532L127.102 36.996C127.112 37.0173 127.128 37.028 127.15 37.028C127.171 37.028 127.187 37.0173 127.198 36.996L129.246 30.532C129.278 30.4467 129.342 30.404 129.438 30.404H130.27C130.387 30.404 130.43 30.4627 130.398 30.58L127.438 39.204C127.182 39.9187 126.942 40.4467 126.718 40.788C126.494 41.1293 126.211 41.364 125.87 41.492C125.539 41.6307 125.07 41.7 124.462 41.7H124.35ZM138.381 32.42C138.541 32.932 138.621 33.6093 138.621 34.452C138.621 35.3053 138.551 35.9667 138.413 36.436C138.221 37.1187 137.869 37.6573 137.357 38.052C136.855 38.436 136.221 38.628 135.453 38.628C135.037 38.628 134.653 38.548 134.301 38.388C133.949 38.2173 133.655 37.9773 133.421 37.668C133.399 37.6467 133.378 37.6413 133.357 37.652C133.346 37.652 133.341 37.6627 133.341 37.684V41.444C133.341 41.5507 133.287 41.604 133.181 41.604H132.365C132.258 41.604 132.205 41.5507 132.205 41.444V30.564C132.205 30.4573 132.258 30.404 132.365 30.404H133.181C133.287 30.404 133.341 30.4573 133.341 30.564V31.236C133.341 31.2573 133.346 31.2733 133.357 31.284C133.378 31.284 133.399 31.2733 133.421 31.252C133.655 30.9427 133.943 30.7027 134.285 30.532C134.637 30.3613 135.026 30.276 135.453 30.276C136.199 30.276 136.823 30.468 137.325 30.852C137.837 31.236 138.189 31.7587 138.381 32.42ZM137.117 36.468C137.234 36.2333 137.319 35.972 137.373 35.684C137.437 35.3853 137.469 34.9747 137.469 34.452C137.469 33.9507 137.447 33.5613 137.405 33.284C137.362 32.996 137.287 32.74 137.181 32.516C137.053 32.132 136.823 31.828 136.493 31.604C136.173 31.38 135.789 31.268 135.341 31.268C134.914 31.268 134.557 31.38 134.269 31.604C133.981 31.828 133.767 32.1267 133.629 32.5C133.533 32.7133 133.463 32.964 133.421 33.252C133.378 33.54 133.357 33.94 133.357 34.452C133.357 34.964 133.378 35.3693 133.421 35.668C133.463 35.956 133.538 36.212 133.645 36.436C133.773 36.7987 133.981 37.092 134.269 37.316C134.567 37.5293 134.919 37.636 135.325 37.636C135.751 37.636 136.119 37.5293 136.429 37.316C136.749 37.1027 136.978 36.82 137.117 36.468ZM147.019 33.092C147.062 33.3907 147.083 33.764 147.083 34.212V34.724C147.083 34.8307 147.03 34.884 146.923 34.884H141.755C141.713 34.884 141.691 34.9053 141.691 34.948C141.713 35.5347 141.745 35.9133 141.787 36.084C141.905 36.564 142.155 36.9427 142.539 37.22C142.923 37.4973 143.414 37.636 144.011 37.636C144.459 37.636 144.854 37.5347 145.195 37.332C145.537 37.1293 145.803 36.8413 145.995 36.468C146.059 36.372 146.134 36.3507 146.219 36.404L146.843 36.772C146.929 36.8253 146.95 36.9 146.907 36.996C146.641 37.508 146.241 37.9133 145.707 38.212C145.174 38.5 144.561 38.644 143.867 38.644C143.11 38.6333 142.475 38.452 141.963 38.1C141.451 37.748 141.083 37.2573 140.859 36.628C140.667 36.116 140.571 35.38 140.571 34.42C140.571 33.972 140.577 33.6093 140.587 33.332C140.609 33.044 140.651 32.788 140.715 32.564C140.897 31.8707 141.259 31.316 141.803 30.9C142.358 30.484 143.025 30.276 143.803 30.276C144.774 30.276 145.521 30.5213 146.043 31.012C146.566 31.5027 146.891 32.196 147.019 33.092ZM143.803 31.268C143.281 31.268 142.843 31.4067 142.491 31.684C142.15 31.9507 141.926 32.3133 141.819 32.772C141.755 32.996 141.713 33.3587 141.691 33.86C141.691 33.9027 141.713 33.924 141.755 33.924H145.899C145.942 33.924 145.963 33.9027 145.963 33.86C145.942 33.38 145.91 33.0387 145.867 32.836C145.75 32.356 145.51 31.9773 145.147 31.7C144.795 31.412 144.347 31.268 143.803 31.268ZM153.314 28.932C153.058 28.932 152.844 28.8467 152.674 28.676C152.503 28.5053 152.418 28.292 152.418 28.036C152.418 27.7693 152.503 27.556 152.674 27.396C152.844 27.2253 153.058 27.14 153.314 27.14C153.57 27.14 153.783 27.2253 153.954 27.396C154.124 27.556 154.21 27.7693 154.21 28.036C154.21 28.292 154.124 28.5053 153.954 28.676C153.783 28.8467 153.57 28.932 153.314 28.932ZM152.866 38.484C152.759 38.484 152.706 38.4307 152.706 38.324V30.548C152.706 30.4413 152.759 30.388 152.866 30.388H153.682C153.788 30.388 153.842 30.4413 153.842 30.548V38.324C153.842 38.4307 153.788 38.484 153.682 38.484H152.866ZM159.984 30.292C160.837 30.292 161.514 30.5427 162.016 31.044C162.528 31.5453 162.784 32.2173 162.784 33.06V38.34C162.784 38.4467 162.73 38.5 162.624 38.5H161.808C161.701 38.5 161.648 38.4467 161.648 38.34V33.284C161.648 32.6973 161.466 32.2173 161.104 31.844C160.752 31.4707 160.293 31.284 159.728 31.284C159.141 31.284 158.666 31.4653 158.304 31.828C157.941 32.1907 157.76 32.6653 157.76 33.252V38.34C157.76 38.4467 157.706 38.5 157.6 38.5H156.784C156.677 38.5 156.624 38.4467 156.624 38.34V30.564C156.624 30.4573 156.677 30.404 156.784 30.404H157.6C157.706 30.404 157.76 30.4573 157.76 30.564V31.252C157.76 31.2733 157.765 31.2893 157.776 31.3C157.797 31.3107 157.813 31.3053 157.824 31.284C158.293 30.6227 159.013 30.292 159.984 30.292ZM168.084 41.7C168.009 41.7 167.972 41.6467 167.972 41.54V40.9C167.972 40.7933 168.025 40.74 168.132 40.74H168.196C168.612 40.7293 168.932 40.6653 169.156 40.548C169.391 40.4413 169.588 40.2333 169.748 39.924C169.919 39.6253 170.1 39.1667 170.292 38.548C170.313 38.5053 170.313 38.4733 170.292 38.452L167.588 30.58L167.572 30.516C167.572 30.4413 167.62 30.404 167.716 30.404H168.564C168.66 30.404 168.724 30.4467 168.756 30.532L170.836 36.996C170.847 37.0173 170.863 37.028 170.884 37.028C170.905 37.028 170.921 37.0173 170.932 36.996L172.98 30.532C173.012 30.4467 173.076 30.404 173.172 30.404H174.004C174.121 30.404 174.164 30.4627 174.132 30.58L171.172 39.204C170.916 39.9187 170.676 40.4467 170.452 40.788C170.228 41.1293 169.945 41.364 169.604 41.492C169.273 41.6307 168.804 41.7 168.196 41.7H168.084ZM178.649 38.628C177.881 38.628 177.22 38.4307 176.665 38.036C176.111 37.6413 175.727 37.0973 175.513 36.404C175.364 35.9133 175.289 35.2573 175.289 34.436C175.289 33.6147 175.364 32.964 175.513 32.484C175.716 31.8013 176.095 31.2627 176.649 30.868C177.204 30.4733 177.876 30.276 178.665 30.276C179.423 30.276 180.073 30.4733 180.617 30.868C181.172 31.2627 181.551 31.796 181.753 32.468C181.903 32.9267 181.977 33.5827 181.977 34.436C181.977 35.3 181.903 35.956 181.753 36.404C181.551 37.0973 181.172 37.6413 180.617 38.036C180.073 38.4307 179.417 38.628 178.649 38.628ZM178.649 37.636C179.161 37.636 179.599 37.4973 179.961 37.22C180.324 36.932 180.569 36.548 180.697 36.068C180.793 35.684 180.841 35.1453 180.841 34.452C180.841 33.748 180.799 33.2093 180.713 32.836C180.585 32.356 180.335 31.9773 179.961 31.7C179.599 31.412 179.156 31.268 178.633 31.268C178.111 31.268 177.668 31.412 177.305 31.7C176.943 31.9773 176.697 32.356 176.569 32.836C176.484 33.2093 176.441 33.748 176.441 34.452C176.441 35.156 176.484 35.6947 176.569 36.068C176.687 36.548 176.927 36.932 177.289 37.22C177.663 37.4973 178.116 37.636 178.649 37.636ZM189.176 30.564C189.176 30.4573 189.229 30.404 189.336 30.404H190.152C190.259 30.404 190.312 30.4573 190.312 30.564V38.34C190.312 38.4467 190.259 38.5 190.152 38.5H189.336C189.229 38.5 189.176 38.4467 189.176 38.34V37.652C189.176 37.6307 189.165 37.6147 189.144 37.604C189.123 37.5933 189.107 37.5987 189.096 37.62C188.648 38.2813 187.939 38.612 186.968 38.612C186.456 38.612 185.981 38.5107 185.544 38.308C185.117 38.0947 184.776 37.7907 184.52 37.396C184.275 37.0013 184.152 36.5267 184.152 35.972V30.564C184.152 30.4573 184.205 30.404 184.312 30.404H185.128C185.235 30.404 185.288 30.4573 185.288 30.564V35.636C185.288 36.244 185.459 36.7293 185.8 37.092C186.141 37.444 186.605 37.62 187.192 37.62C187.8 37.62 188.28 37.4387 188.632 37.076C188.995 36.7133 189.176 36.2333 189.176 35.636V30.564ZM196.122 30.324C196.474 30.324 196.778 30.3933 197.034 30.532C197.119 30.5747 197.151 30.644 197.13 30.74L196.954 31.524C196.922 31.6307 196.853 31.6627 196.746 31.62C196.565 31.5453 196.357 31.508 196.122 31.508L195.914 31.524C195.359 31.5453 194.901 31.7533 194.538 32.148C194.175 32.532 193.994 33.0227 193.994 33.62V38.34C193.994 38.4467 193.941 38.5 193.834 38.5H193.018C192.911 38.5 192.858 38.4467 192.858 38.34V30.564C192.858 30.4573 192.911 30.404 193.018 30.404H193.834C193.941 30.404 193.994 30.4573 193.994 30.564V31.54C193.994 31.572 193.999 31.5933 194.01 31.604C194.031 31.604 194.047 31.5933 194.058 31.572C194.282 31.1773 194.565 30.8733 194.906 30.66C195.258 30.436 195.663 30.324 196.122 30.324ZM205.793 38.628C205.047 38.628 204.385 38.4787 203.809 38.18C203.233 37.8813 202.785 37.4653 202.465 36.932C202.145 36.388 201.985 35.7587 201.985 35.044V27.46C201.985 27.3533 202.039 27.3 202.145 27.3H202.961C203.068 27.3 203.121 27.3533 203.121 27.46V35.076C203.121 35.8333 203.367 36.452 203.857 36.932C204.348 37.4013 204.993 37.636 205.793 37.636C206.593 37.636 207.239 37.4013 207.729 36.932C208.22 36.452 208.465 35.8333 208.465 35.076V27.46C208.465 27.3533 208.519 27.3 208.625 27.3H209.441C209.548 27.3 209.601 27.3533 209.601 27.46V35.044C209.601 35.7587 209.441 36.388 209.121 36.932C208.812 37.4653 208.369 37.8813 207.793 38.18C207.217 38.4787 206.551 38.628 205.793 38.628ZM219.016 38.5C218.92 38.5 218.856 38.4627 218.824 38.388L216.472 33.428C216.462 33.396 216.44 33.38 216.408 33.38H213.688C213.646 33.38 213.624 33.4013 213.624 33.444V38.34C213.624 38.4467 213.571 38.5 213.464 38.5H212.648C212.542 38.5 212.488 38.4467 212.488 38.34V27.46C212.488 27.3533 212.542 27.3 212.648 27.3H216.792C217.71 27.3 218.451 27.588 219.016 28.164C219.582 28.7293 219.864 29.4707 219.864 30.388C219.864 31.1347 219.662 31.7693 219.256 32.292C218.851 32.8147 218.302 33.1507 217.608 33.3C217.566 33.3213 217.555 33.348 217.576 33.38L219.976 38.308C219.987 38.3293 219.992 38.356 219.992 38.388C219.992 38.4627 219.95 38.5 219.864 38.5H219.016ZM213.688 28.292C213.646 28.292 213.624 28.3133 213.624 28.356V32.404C213.624 32.4467 213.646 32.468 213.688 32.468H216.664C217.283 32.468 217.784 32.276 218.168 31.892C218.552 31.508 218.744 31.0067 218.744 30.388C218.744 29.7693 218.552 29.268 218.168 28.884C217.784 28.4893 217.283 28.292 216.664 28.292H213.688ZM222.445 38.5C222.339 38.5 222.285 38.4467 222.285 38.34V27.46C222.285 27.3533 222.339 27.3 222.445 27.3H223.261C223.368 27.3 223.421 27.3533 223.421 27.46V37.444C223.421 37.4867 223.443 37.508 223.485 37.508H229.133C229.24 37.508 229.293 37.5613 229.293 37.668V38.34C229.293 38.4467 229.24 38.5 229.133 38.5H222.445Z" fill="black"></path><rect x="130" y="96" width="40" height="40" rx="20" fill="white"></rect><path d="M154.219 115.523V115.289C154.219 115.113 154.365 114.938 154.57 114.938H154.805C154.98 114.938 155.156 115.113 155.156 115.289V115.523C155.156 115.729 154.98 115.875 154.805 115.875H154.57C154.365 115.875 154.219 115.729 154.219 115.523ZM154.57 117.75C154.365 117.75 154.219 117.604 154.219 117.398V117.164C154.219 116.988 154.365 116.812 154.57 116.812H154.805C154.98 116.812 155.156 116.988 155.156 117.164V117.398C155.156 117.604 154.98 117.75 154.805 117.75H154.57ZM153.516 113.766C153.516 113.766 153.721 113.766 153.721 116.812C153.721 119.859 153.516 119.889 153.516 119.889C153.516 119.889 153.516 120.094 149.297 120.094C145.078 120.094 145.049 119.889 145.049 119.889C145.049 119.889 144.844 119.859 144.844 116.812C144.844 113.766 145.049 113.766 145.049 113.766C145.049 113.766 145.107 113.531 149.297 113.531C153.457 113.531 153.516 113.766 153.516 113.766ZM157.5 112.594V121.031C157.5 121.822 156.855 122.438 156.094 122.438H155.625V123.375H154.219L153.896 122.438H146.074L145.781 123.375H144.375V122.438H143.906C143.115 122.438 142.5 121.822 142.5 121.031V112.594C142.5 111.832 143.115 111.188 143.906 111.188H148.008L146.426 109.576C146.162 109.312 146.162 108.873 146.455 108.58C146.719 108.316 147.158 108.316 147.451 108.609L150 111.188L152.52 108.609C152.812 108.316 153.252 108.316 153.516 108.58C153.809 108.873 153.809 109.312 153.545 109.576L151.963 111.188H156.094C156.855 111.188 157.5 111.832 157.5 112.594ZM156.094 112.594H143.906V121.031H156.094V112.594Z" fill="#002A3C"></path><rect x="190" y="96" width="40" height="40" rx="20" fill="white"></rect><path d="M217.471 109.842L217.5 120.125C217.5 121.18 216.24 122 214.688 122C213.105 122 211.875 121.18 211.875 120.125C211.875 119.1 213.105 118.25 214.688 118.25C215.01 118.25 215.303 118.309 215.625 118.367V112.977L208.125 115.174V122C208.125 123.055 206.865 123.875 205.312 123.875C203.73 123.875 202.5 123.055 202.5 122C202.5 120.975 203.73 120.125 205.312 120.125C205.635 120.125 205.928 120.184 206.25 120.242V112.596C206.25 112.186 206.514 111.834 206.895 111.688L216.27 108.934C216.855 108.729 217.471 109.197 217.471 109.842Z" fill="#002A3C"></path><rect x="250" y="96" width="40" height="40" rx="20" fill="white"></rect><path d="M275.562 114.5C276.588 114.5 278.375 115.35 278.375 116.375C278.375 117.43 276.588 118.25 275.562 118.25H272.193L269.117 123.641C269.029 123.787 268.883 123.875 268.707 123.875H266.803C266.48 123.875 266.246 123.582 266.334 123.289L267.77 118.25H264.781L263.492 119.949C263.404 120.066 263.287 120.125 263.141 120.125H261.969C261.646 120.125 261.412 119.861 261.5 119.568L262.438 116.375L261.5 113.211C261.412 112.918 261.646 112.625 261.969 112.625H263.141C263.287 112.625 263.404 112.713 263.492 112.83L264.781 114.5H267.77L266.334 109.49C266.246 109.197 266.48 108.875 266.803 108.875H268.707C268.854 108.875 269.059 108.992 269.117 109.139L272.193 114.5H275.562Z" fill="#002A3C"></path><rect x="310" y="96" width="40" height="40" rx="20" fill="white"></rect><path d="M337.672 110.75C338.053 110.75 338.375 111.072 338.375 111.453V121.297C338.375 121.707 338.053 122 337.672 122H322.906C322.115 122 321.5 121.385 321.5 120.594V112.391C321.5 112.01 321.793 111.688 322.203 111.688H323.375V111.453C323.375 111.072 323.668 110.75 324.078 110.75H337.672ZM322.438 120.594C322.438 120.857 322.643 121.062 322.906 121.062C323.141 121.062 323.375 120.857 323.375 120.594V112.625H322.438V120.594ZM337.438 121.062V111.688H324.312V120.594V120.623C324.312 120.74 324.254 120.945 324.225 121.062H337.438ZM325.602 118.25C325.396 118.25 325.25 118.104 325.25 117.898V112.977C325.25 112.801 325.396 112.625 325.602 112.625H330.523C330.699 112.625 330.875 112.801 330.875 112.977V117.898C330.875 118.104 330.699 118.25 330.523 118.25H325.602ZM326.188 113.562V117.312H329.938V113.562H326.188ZM325.25 119.773V119.539C325.25 119.363 325.396 119.188 325.602 119.188H330.523C330.699 119.188 330.875 119.363 330.875 119.539V119.773C330.875 119.979 330.699 120.125 330.523 120.125H325.602C325.396 120.125 325.25 119.979 325.25 119.773ZM331.812 119.773V119.539C331.812 119.363 331.959 119.188 332.164 119.188H336.148C336.324 119.188 336.5 119.363 336.5 119.539V119.773C336.5 119.979 336.324 120.125 336.148 120.125H332.164C331.959 120.125 331.812 119.979 331.812 119.773ZM331.812 117.898V117.664C331.812 117.488 331.959 117.312 332.164 117.312H336.148C336.324 117.312 336.5 117.488 336.5 117.664V117.898C336.5 118.104 336.324 118.25 336.148 118.25H332.164C331.959 118.25 331.812 118.104 331.812 117.898ZM331.812 114.148V113.914C331.812 113.738 331.959 113.562 332.164 113.562H336.148C336.324 113.562 336.5 113.738 336.5 113.914V114.148C336.5 114.354 336.324 114.5 336.148 114.5H332.164C331.959 114.5 331.812 114.354 331.812 114.148ZM331.812 116.023V115.789C331.812 115.613 331.959 115.438 332.164 115.438H336.148C336.324 115.438 336.5 115.613 336.5 115.789V116.023C336.5 116.229 336.324 116.375 336.148 116.375H332.164C331.959 116.375 331.812 116.229 331.812 116.023Z" fill="#002A3C"></path><rect x="370" y="96" width="40" height="40" rx="20" fill="white"></rect><path d="M399.312 108.875C399.811 108.875 400.25 109.285 400.25 109.754V118.338C400.25 118.807 399.811 119.188 399.312 119.188H395.562V118.25H396.5V109.812H389V112.625H385.25V109.754C385.25 109.285 385.66 108.875 386.188 108.875H399.312ZM388.062 111.688V109.812H386.188V111.688H388.062ZM399.312 118.25V116.375H397.438V118.25H399.312ZM399.312 115.438V112.625H397.438V115.438H399.312ZM399.312 111.688V109.812H397.438V111.688H399.312ZM393.688 113.562C394.186 113.562 394.625 114.002 394.625 114.5V122.938C394.625 123.465 394.186 123.875 393.688 123.875H382.438C381.91 123.875 381.5 123.465 381.5 122.938V114.5C381.5 114.002 381.91 113.562 382.438 113.562H393.688ZM393.688 122.938V120.711L390.875 118.836L387.154 121.619L384.811 120.447L382.438 122.234V122.938H393.688ZM393.688 119.568V114.5H382.438V121.062L384.723 119.363L387.066 120.535L390.846 117.693L393.688 119.568ZM384.781 118.25C383.99 118.25 383.375 117.635 383.375 116.844C383.375 116.082 383.99 115.438 384.781 115.438C385.543 115.438 386.188 116.082 386.188 116.844C386.188 117.635 385.543 118.25 384.781 118.25ZM384.781 116.375C384.518 116.375 384.312 116.609 384.312 116.844C384.312 117.107 384.518 117.312 384.781 117.312C385.016 117.312 385.25 117.107 385.25 116.844C385.25 116.609 385.016 116.375 384.781 116.375Z" fill="#002A3C"></path><rect x="430" y="96" width="40" height="40" rx="20" fill="white"></rect><path d="M450.42 116.24H454.4V117.66H450.42V121.78H448.98V117.66H445V116.24H448.98V112.1H450.42V116.24Z" fill="#002A3C"></path></svg>