<svg xmlns="http://www.w3.org/2000/svg" width="24" height="235" viewBox="0 0 24 235" fill="none"><g clip-path="url(#clip0_255_7247)"><g clip-path="url(#clip1_255_7247)"><path d="M19.6211 10.8673C19.9412 10.9026 19.9412 11.3472 19.6211 11.3825L18.1736 11.542C15.1539 11.8748 12.772 14.1534 12.4238 17.0418L12.2571 18.4262C12.2202 18.7323 11.7553 18.7323 11.7184 18.4262L11.5516 17.0418C11.2037 14.1534 8.82153 11.8751 5.80182 11.542L4.35431 11.3825C4.03424 11.3472 4.03424 10.9026 4.35431 10.8673L5.80157 10.7078C8.82127 10.3749 11.2032 8.09636 11.5514 5.20794L11.7181 3.82336C11.755 3.51721 12.2199 3.51721 12.2568 3.82336L12.4235 5.20794C12.7715 8.09636 15.1536 10.3747 18.1734 10.7078L19.6209 10.8673H19.6211Z" fill="#002A3C"></path><path d="M22.0958 4.20643C20.5856 4.04002 19.3944 2.90036 19.2201 1.45578L19.1368 0.763243C19.1184 0.610169 18.8859 0.610169 18.8673 0.763243L18.7839 1.45553C18.6099 2.90011 17.4185 4.03953 15.9082 4.20618L15.1845 4.28593C15.0244 4.30346 15.0244 4.52591 15.1845 4.54369L15.9082 4.62343C17.4185 4.78984 18.6097 5.9295 18.7839 7.37408L18.8673 8.06637C18.8856 8.21945 19.1182 8.21945 19.1368 8.06637L19.2201 7.37408C19.3941 5.9295 20.5856 4.79009 22.0958 4.62343L22.8196 4.54369C22.9796 4.52616 22.9796 4.30371 22.8196 4.28593L22.0958 4.20618V4.20643Z" fill="#002A3C"></path><path d="M7.59854 6.25082C6.91918 6.17601 6.38333 5.66321 6.30512 5.01363L6.2677 4.70205C6.25944 4.63317 6.1549 4.63317 6.14664 4.70205L6.10921 5.01363C6.031 5.66346 5.49489 6.17601 4.81579 6.25082L4.49005 6.28662C4.41803 6.29452 4.41803 6.39451 4.49005 6.40241L4.81579 6.43821C5.49515 6.51302 6.031 7.02582 6.10921 7.6754L6.14664 7.98698C6.1549 8.05586 6.25944 8.05586 6.2677 7.98698L6.30512 7.6754C6.38333 7.02557 6.91944 6.51302 7.59854 6.43821L7.92429 6.40241C7.9963 6.39451 7.9963 6.29452 7.92429 6.28662L7.59854 6.25082Z" fill="#002A3C"></path><path d="M20.7907 21.7924C21.3168 21.5796 21.7889 21.2752 22.1944 20.8873C22.5999 20.4994 22.9181 20.0479 23.1406 19.5447C23.3711 19.0235 23.4878 18.4705 23.4878 17.9004V7.18C23.4878 6.89064 23.2426 6.65634 22.9403 6.65634C22.6381 6.65634 22.3929 6.89089 22.3929 7.18V17.9004C22.3929 19.6519 20.903 21.0769 19.0719 21.0769H4.90391C3.07283 21.0769 1.58298 19.6519 1.58298 17.9004V4.34887C1.58298 2.5974 3.07283 1.17233 4.90391 1.17233H15.9722C16.2747 1.17233 16.5197 0.937776 16.5197 0.648663C16.5197 0.359549 16.2745 0.125 15.9722 0.125H4.90391C4.30792 0.125 3.72948 0.236843 3.18485 0.457073C2.65881 0.669895 2.18672 0.974316 1.78122 1.36219C1.37571 1.75006 1.05746 2.20163 0.83496 2.7048C0.60472 3.2255 0.487793 3.77879 0.487793 4.34887V17.9006C0.487793 18.4707 0.60472 19.024 0.83496 19.545C1.05746 20.0481 1.37571 20.4997 1.78122 20.8876C2.18672 21.2754 2.65881 21.5799 3.18485 21.7927C3.72974 22.0132 4.30792 22.1248 4.90391 22.1248H19.0717C19.6677 22.1248 20.2461 22.0129 20.7907 21.7927V21.7924Z" fill="#002A3C"></path></g></g><g clip-path="url(#clip2_255_7247)"><path d="M23.5012 55.0245L21.9112 43.0474C21.8992 41.8827 20.6946 40.9297 19.213 40.9297H4.90308C3.43354 40.9297 2.22899 41.8709 2.2049 43.0474L0.626953 55.0245C0.626953 55.0245 0.626953 55.0598 0.626953 55.0716C0.626953 56.2481 1.83149 57.2128 3.32513 57.2128H19.2973H20.8271C22.3087 57.2128 23.5253 56.2481 23.5253 55.0716C23.5253 55.0598 23.5253 55.0363 23.5253 55.0245H23.5012ZM20.8151 56.3305H19.8394L10.7933 46.6476L19.8153 41.918C20.3935 42.1062 20.803 42.5533 20.803 43.0827C20.803 43.0945 20.803 43.118 20.803 43.1298L22.393 55.1069C22.381 55.7892 21.6703 56.3422 20.8151 56.3422V56.3305ZM3.32513 43.071C3.32513 42.3768 4.03581 41.8121 4.90308 41.8121H17.9603L2.40967 49.9654L3.32513 43.118C3.32513 43.118 3.32513 43.0827 3.32513 43.071ZM2.26513 51.1067L9.86579 47.13L18.4542 56.3305H3.31308C2.45786 56.3305 1.74718 55.7775 1.73513 55.0951L2.26513 51.1067Z" fill="#002A3C"></path><path d="M20.8267 41.5171C20.8267 39.1287 18.8512 37.1992 16.406 37.1992C13.9608 37.1992 11.9854 39.1287 11.9854 41.5171C11.9854 42.3524 12.2263 43.1172 12.6478 43.776L16.4181 50.2587L20.3087 43.5642C20.646 42.9524 20.8387 42.2583 20.8387 41.5053L20.8267 41.5171ZM16.406 43.1995C15.2135 43.1995 14.2378 42.2583 14.2378 41.0818C14.2378 39.9052 15.2015 38.964 16.406 38.964C17.6106 38.964 18.5742 39.9052 18.5742 41.0818C18.5742 42.2583 17.6106 43.1995 16.406 43.1995Z" fill="#002A3C"></path><path d="M16.3943 43.4107C17.6915 43.4107 18.7431 42.3836 18.7431 41.1165C18.7431 39.8494 17.6915 38.8223 16.3943 38.8223C15.097 38.8223 14.0454 39.8494 14.0454 41.1165C14.0454 42.3836 15.097 43.4107 16.3943 43.4107Z" fill="white"></path></g><g clip-path="url(#clip3_255_7247)"><path d="M21.3566 85.741V77.208L16.3084 72.3855V72.3613H4.76423C3.71934 72.3613 2.86328 73.2074 2.86328 74.2468V92.2072C2.86328 93.2466 3.71934 94.0927 4.76423 94.0927H19.4431C19.8334 94.0927 20.211 93.9718 20.5132 93.7663C21.0293 93.5246 21.3818 93.0291 21.3818 92.4489V88.1703L21.3566 85.753V85.741ZM16.2958 73.3403L20.3495 77.208H17.4666C16.8246 77.208 16.2958 76.652 16.2958 75.9752V73.3403ZM4.76423 73.014H15.5531V75.9752C15.5531 77.0146 16.4091 77.8606 17.4666 77.8606H20.6139V88.1582H3.60604V74.2468C3.60604 73.57 4.13478 73.014 4.77682 73.014H4.76423Z" fill="#002A3C"></path><path d="M10.2909 90.4658C10.2909 90.8526 10.165 91.1548 9.92579 91.3602C9.68659 91.5657 9.3341 91.6745 8.88089 91.6745H8.55358V92.9556H7.78564V89.3418H8.94384C9.38446 89.3418 9.72436 89.4385 9.95097 89.6198C10.1776 89.8011 10.2909 90.0912 10.2909 90.4658ZM8.55358 91.0339H8.80536C9.04455 91.0339 9.2208 90.9855 9.3341 90.8889C9.4474 90.7922 9.51035 90.6592 9.51035 90.4779C9.51035 90.2966 9.45999 90.1637 9.35928 90.0791C9.25857 89.9945 9.1075 89.9461 8.89348 89.9461H8.54099V91.0218L8.55358 91.0339Z" fill="white"></path><path d="M14.0048 91.1068C14.0048 91.699 13.8285 92.1583 13.4886 92.4725C13.1487 92.7868 12.6577 92.9439 12.0157 92.9439H10.9834V89.3301H12.129C12.7207 89.3301 13.1865 89.4872 13.5138 89.8014C13.8411 90.1157 14.0048 90.5508 14.0048 91.1068ZM13.1991 91.1309C13.1991 90.3574 12.8592 89.9707 12.1668 89.9707H11.7513V92.3275H12.0786C12.8214 92.3275 13.1991 91.9287 13.1991 91.143V91.1309Z" fill="white"></path><path d="M15.5151 92.9439H14.7598V89.3301H16.8496V89.9586H15.5277V90.8892H16.7614V91.5177H15.5277V92.9439H15.5151Z" fill="white"></path><path d="M6.58981 78.2955C6.96748 77.9571 7.37033 76.3496 7.37033 76.3496C7.37033 76.3496 7.74801 77.9571 8.15086 78.2955C8.55371 78.6339 9.76226 78.9724 9.76226 78.9724C9.76226 78.9724 8.50335 79.3349 8.15086 79.6492C7.79836 79.9634 7.37033 81.8368 7.37033 81.8368C7.37033 81.8368 6.92972 79.9514 6.58981 79.6492C6.24991 79.347 4.96582 78.9724 4.96582 78.9724C4.96582 78.9724 6.28767 78.5614 6.58981 78.2955Z" fill="#002A3C"></path><path d="M10.2784 76.0122C10.5428 75.7705 10.8197 74.6465 10.8197 74.6465C10.8197 74.6465 11.0841 75.7705 11.3611 76.0122C11.638 76.254 12.4941 76.4957 12.4941 76.4957C12.4941 76.4957 11.6129 76.7495 11.3611 76.9792C11.1093 77.2088 10.8197 78.5141 10.8197 78.5141C10.8197 78.5141 10.5176 77.1846 10.2784 76.9792C10.0392 76.7737 9.13281 76.4957 9.13281 76.4957C9.13281 76.4957 10.0644 76.2056 10.2784 76.0122Z" fill="#002A3C"></path><path d="M10.2784 80.9302C10.5428 80.6885 10.8197 79.5645 10.8197 79.5645C10.8197 79.5645 11.0841 80.6885 11.3611 80.9302C11.638 81.1719 12.4941 81.4137 12.4941 81.4137C12.4941 81.4137 11.6129 81.6675 11.3611 81.8971C11.1093 82.1268 10.8197 83.4321 10.8197 83.4321C10.8197 83.4321 10.5176 82.1026 10.2784 81.8971C10.0392 81.6917 9.13281 81.4137 9.13281 81.4137C9.13281 81.4137 10.0644 81.1236 10.2784 80.9302Z" fill="#002A3C"></path></g><g clip-path="url(#clip4_255_7247)"><g clip-path="url(#clip5_255_7247)"><path d="M12.0019 130.565C6.64537 130.565 2.29541 126.166 2.29541 120.749C2.29541 115.332 6.64537 110.934 12.0019 110.934C17.3585 110.934 21.7085 115.332 21.7085 120.749C21.7085 126.166 17.3585 130.565 12.0019 130.565ZM12.0019 111.927C7.19661 111.927 3.27805 115.89 3.27805 120.749C3.27805 125.609 7.19661 129.571 12.0019 129.571C16.8073 129.571 20.7258 125.609 20.7258 120.749C20.7258 115.89 16.8073 111.927 12.0019 111.927Z" fill="#002A3C"></path><path d="M12.4455 109.25H11.4629V114.037H12.4455V109.25Z" fill="#002A3C"></path><path d="M12.4455 127.463H11.4629V132.25H12.4455V127.463Z" fill="#002A3C"></path><path d="M5.31546 120.254H0.582031V121.248H5.31546V120.254Z" fill="#002A3C"></path><path d="M23.3267 120.254H18.5933V121.248H23.3267V120.254Z" fill="#002A3C"></path><path d="M11.6187 125.477L7.31671 123.562L7.28076 117.891L11.6187 119.878V125.477Z" fill="#002A3C"></path><path d="M12.3975 125.477L16.6995 123.562L16.7354 117.891L12.3975 119.878V125.477Z" fill="#002A3C"></path><path d="M11.9903 119.247L7.67627 117.26L11.8345 115.309L16.3522 117.26L11.9903 119.247Z" fill="#002A3C"></path></g></g><path d="M18.6981 150.049C20.4794 151.83 21.582 154.163 21.582 156.708C21.582 161.882 17.2561 166.123 12.0396 166.123C10.4704 166.123 8.94364 165.699 7.54409 164.978L2.58203 166.25L3.89676 161.373C3.09096 159.973 2.62444 158.362 2.62444 156.665C2.62444 151.491 6.86551 147.25 12.0396 147.25C14.5843 147.25 16.9593 148.268 18.6981 150.049ZM12.0396 164.511C16.3655 164.511 19.9704 160.991 19.9704 156.708C19.9704 154.587 19.0798 152.636 17.5954 151.152C16.111 149.667 14.1602 148.862 12.082 148.862C7.75614 148.862 4.23605 152.382 4.23605 156.665C4.23605 158.15 4.66016 159.592 5.42355 160.864L5.6356 161.161L4.8298 164.045L7.79855 163.239L8.05301 163.408C9.28292 164.129 10.6401 164.511 12.0396 164.511ZM16.3655 158.658C16.5776 158.786 16.7472 158.828 16.7896 158.955C16.8744 159.04 16.8744 159.507 16.6624 160.058C16.4503 160.609 15.5173 161.118 15.0932 161.161C14.3298 161.288 13.736 161.246 12.2517 160.567C9.87667 159.549 8.34989 157.174 8.22266 157.047C8.09542 156.877 7.28962 155.775 7.28962 154.587C7.28962 153.442 7.88337 152.891 8.09542 152.636C8.30748 152.382 8.56194 152.339 8.73159 152.339C8.85882 152.339 9.02846 152.339 9.15569 152.339C9.32534 152.339 9.49498 152.297 9.70703 152.763C9.87667 153.23 10.3856 154.375 10.428 154.502C10.4704 154.629 10.5128 154.757 10.428 154.926C10.0039 155.817 9.49498 155.775 9.74944 156.199C10.6825 157.768 11.5731 158.319 12.9727 158.998C13.1847 159.125 13.3119 159.083 13.4816 158.955C13.6088 158.786 14.0753 158.234 14.2026 158.022C14.3722 157.768 14.5419 157.81 14.7539 157.895C14.966 157.98 16.111 158.531 16.3655 158.658Z" fill="#002A3C"></path><path d="M12.082 181.25C17.4449 181.25 21.582 185.196 21.582 190.482C21.582 197.185 15.1849 200.94 9.32397 199.331C8.97921 199.254 8.9409 199.331 6.94897 200.212C6.83405 200.25 6.71913 200.25 6.64251 200.25C6.22114 200.25 5.87639 199.944 5.87639 199.522C5.79977 197.76 5.87639 197.607 5.56993 197.3C3.69292 195.653 2.58203 193.24 2.58203 190.482C2.58203 185.196 6.71913 181.25 12.082 181.25ZM17.7897 188.375C18.0578 187.954 17.5599 187.456 17.1385 187.762L14.1506 190.022C14.074 190.099 13.9207 190.137 13.8058 190.137C13.6909 190.137 13.5377 190.099 13.4611 190.022L11.2393 188.375C11.0095 188.222 10.6264 188.107 10.3582 188.107C9.93687 188.107 9.40058 188.375 9.17074 188.758L6.37437 193.163C6.10622 193.585 6.60421 194.083 7.02558 193.776L10.0135 191.516C10.1284 191.44 10.2816 191.401 10.3582 191.401C10.4732 191.401 10.6264 191.44 10.703 191.516L12.9248 193.163C13.1546 193.317 13.5377 193.47 13.8058 193.47C14.2272 193.47 14.7635 193.163 14.9933 192.78L17.7897 188.375Z" fill="#002A3C"></path><path d="M12.1032 219.852C14.7751 219.852 16.9805 222.057 16.9805 224.729C16.9805 227.443 14.7751 229.606 12.1032 229.606C9.38895 229.606 7.226 227.443 7.226 224.729C7.226 222.057 9.38895 219.852 12.1032 219.852ZM12.1032 227.91C13.8421 227.91 15.2416 226.51 15.2416 224.729C15.2416 222.99 13.8421 221.59 12.1032 221.59C10.322 221.59 8.92243 222.99 8.92243 224.729C8.92243 226.51 10.3644 227.91 12.1032 227.91ZM18.2952 219.682C18.2952 220.318 17.7863 220.827 17.1501 220.827C16.514 220.827 16.005 220.318 16.005 219.682C16.005 219.046 16.514 218.537 17.1501 218.537C17.7863 218.537 18.2952 219.046 18.2952 219.682ZM21.5184 220.827C21.6032 222.396 21.6032 227.104 21.5184 228.673C21.4336 230.2 21.0943 231.515 19.9916 232.66C18.889 233.762 17.5318 234.102 16.005 234.186C14.4358 234.271 9.72824 234.271 8.15904 234.186C6.63225 234.102 5.31752 233.762 4.17243 232.66C3.06975 231.515 2.73047 230.2 2.64565 228.673C2.56083 227.104 2.56083 222.396 2.64565 220.827C2.73047 219.3 3.06975 217.943 4.17243 216.84C5.31752 215.738 6.63225 215.398 8.15904 215.314C9.72824 215.229 14.4358 215.229 16.005 215.314C17.5318 215.398 18.889 215.738 19.9916 216.84C21.0943 217.943 21.4336 219.3 21.5184 220.827ZM19.4827 230.327C19.9916 229.097 19.8644 226.128 19.8644 224.729C19.8644 223.372 19.9916 220.403 19.4827 219.131C19.1434 218.325 18.5073 217.646 17.7015 217.349C16.4291 216.84 13.4604 216.968 12.1032 216.968C10.7037 216.968 7.73493 216.84 6.50502 217.349C5.65681 217.689 5.02065 218.325 4.68136 219.131C4.17243 220.403 4.29967 223.372 4.29967 224.729C4.29967 226.128 4.17243 229.097 4.68136 230.327C5.02065 231.175 5.65681 231.811 6.50502 232.151C7.73493 232.66 10.7037 232.532 12.1032 232.532C13.4604 232.532 16.4291 232.66 17.7015 232.151C18.5073 231.811 19.1858 231.175 19.4827 230.327Z" fill="#002A3C"></path><defs><clipPath id="clip0_255_7247"><rect width="23" height="22" fill="white" transform="translate(0.582031 0.125)"></rect></clipPath><clipPath id="clip1_255_7247"><rect width="22.9997" height="22" fill="white" transform="translate(0.487793 0.125)"></rect></clipPath><clipPath id="clip2_255_7247"><rect width="23" height="20.125" fill="white" transform="translate(0.582031 37.125)"></rect></clipPath><clipPath id="clip3_255_7247"><rect width="18.8571" height="22" fill="white" transform="translate(2.65332 72.25)"></rect></clipPath><clipPath id="clip4_255_7247"><rect width="23" height="23" fill="white" transform="translate(0.582031 109.25)"></rect></clipPath><clipPath id="clip5_255_7247"><rect width="22.7444" height="23" fill="white" transform="translate(0.582031 109.25)"></rect></clipPath></defs></svg>