<svg width="303" height="29" viewBox="0 0 303 29" fill="none" xmlns="http://www.w3.org/2000/svg">
<path d="M53.3949 23L48.4688 5.54545H51.8693L55.0142 18.3722H55.1761L58.5341 5.54545H61.6278L64.9943 18.3807H65.1477L68.2926 5.54545H71.6932L66.767 23H63.6477L60.1534 10.7528H60.017L56.5142 23H53.3949ZM78.2088 23.2557C76.8963 23.2557 75.7628 22.983 74.8082 22.4375C73.8594 21.8864 73.1293 21.108 72.6179 20.1023C72.1065 19.0909 71.8509 17.9006 71.8509 16.5312C71.8509 15.1847 72.1065 14.0028 72.6179 12.9858C73.1349 11.9631 73.8565 11.1676 74.7827 10.5994C75.7088 10.0256 76.7969 9.73864 78.0469 9.73864C78.8537 9.73864 79.6151 9.86932 80.331 10.1307C81.0526 10.3864 81.6889 10.7841 82.2401 11.3239C82.7969 11.8636 83.2344 12.5511 83.5526 13.3864C83.8707 14.2159 84.0298 15.2045 84.0298 16.3523V17.2983H73.2997V15.2188H81.0724C81.0668 14.6278 80.9389 14.1023 80.6889 13.642C80.4389 13.1761 80.0895 12.8097 79.6406 12.5426C79.1974 12.2756 78.6804 12.142 78.0895 12.142C77.4588 12.142 76.9048 12.2955 76.4276 12.6023C75.9503 12.9034 75.5781 13.3011 75.3111 13.7955C75.0497 14.2841 74.9162 14.821 74.9105 15.4062V17.2216C74.9105 17.983 75.0497 18.6364 75.3281 19.1818C75.6065 19.7216 75.9957 20.1364 76.4957 20.4261C76.9957 20.7102 77.581 20.8523 78.2514 20.8523C78.7003 20.8523 79.1065 20.7898 79.4702 20.6648C79.8338 20.5341 80.1491 20.3438 80.4162 20.0938C80.6832 19.8438 80.8849 19.5341 81.0213 19.1648L83.902 19.4886C83.7202 20.25 83.3736 20.9148 82.8622 21.483C82.3565 22.0455 81.7088 22.483 80.919 22.7955C80.1293 23.1023 79.2259 23.2557 78.2088 23.2557ZM86.7763 23V5.54545H89.8615V12.0739H89.9893C90.1484 11.7557 90.3729 11.4176 90.6626 11.0597C90.9524 10.696 91.3445 10.3864 91.8388 10.1307C92.3331 9.86932 92.9638 9.73864 93.7308 9.73864C94.7422 9.73864 95.6541 9.99716 96.4666 10.5142C97.2848 11.0256 97.9325 11.7841 98.4098 12.7898C98.8928 13.7898 99.1342 15.017 99.1342 16.4716C99.1342 17.9091 98.8984 19.1307 98.4268 20.1364C97.9553 21.142 97.3132 21.9091 96.5007 22.4375C95.6882 22.9659 94.7678 23.2301 93.7393 23.2301C92.9893 23.2301 92.3672 23.1051 91.8729 22.8551C91.3786 22.6051 90.9808 22.304 90.6797 21.9517C90.3842 21.5937 90.1541 21.2557 89.9893 20.9375H89.8104V23H86.7763ZM89.8018 16.4545C89.8018 17.3011 89.9212 18.0426 90.1598 18.679C90.4041 19.3153 90.7536 19.8125 91.2081 20.1705C91.6683 20.5227 92.2251 20.6989 92.8786 20.6989C93.5604 20.6989 94.1314 20.517 94.5916 20.1534C95.0518 19.7841 95.3984 19.2812 95.6314 18.6449C95.87 18.0028 95.9893 17.2727 95.9893 16.4545C95.9893 15.642 95.8729 14.9205 95.6399 14.2898C95.407 13.6591 95.0604 13.1648 94.6001 12.8068C94.1399 12.4489 93.5661 12.2699 92.8786 12.2699C92.2195 12.2699 91.6598 12.4432 91.1996 12.7898C90.7393 13.1364 90.3899 13.6222 90.1513 14.2472C89.9183 14.8722 89.8018 15.608 89.8018 16.4545ZM104.348 23L99.4219 5.54545H102.822L105.967 18.3722H106.129L109.487 5.54545H112.581L115.947 18.3807H116.101L119.246 5.54545H122.646L117.72 23H114.601L111.107 10.7528H110.97L107.467 23H104.348ZM129.077 23.2557C127.798 23.2557 126.69 22.9744 125.753 22.4119C124.815 21.8494 124.088 21.0625 123.571 20.0511C123.06 19.0398 122.804 17.858 122.804 16.5057C122.804 15.1534 123.06 13.9687 123.571 12.9517C124.088 11.9347 124.815 11.1449 125.753 10.5824C126.69 10.0199 127.798 9.73864 129.077 9.73864C130.355 9.73864 131.463 10.0199 132.401 10.5824C133.338 11.1449 134.063 11.9347 134.574 12.9517C135.091 13.9687 135.349 15.1534 135.349 16.5057C135.349 17.858 135.091 19.0398 134.574 20.0511C134.063 21.0625 133.338 21.8494 132.401 22.4119C131.463 22.9744 130.355 23.2557 129.077 23.2557ZM129.094 20.7841C129.787 20.7841 130.366 20.5937 130.832 20.2131C131.298 19.8267 131.645 19.3097 131.872 18.6619C132.105 18.0142 132.222 17.2926 132.222 16.4972C132.222 15.696 132.105 14.9716 131.872 14.3239C131.645 13.6705 131.298 13.1506 130.832 12.7642C130.366 12.3778 129.787 12.1847 129.094 12.1847C128.384 12.1847 127.793 12.3778 127.321 12.7642C126.855 13.1506 126.506 13.6705 126.273 14.3239C126.045 14.9716 125.932 15.696 125.932 16.4972C125.932 17.2926 126.045 18.0142 126.273 18.6619C126.506 19.3097 126.855 19.8267 127.321 20.2131C127.793 20.5937 128.384 20.7841 129.094 20.7841ZM141.053 15.3295V23H137.968V9.90909H140.917V12.1335H141.07C141.371 11.4006 141.852 10.8182 142.511 10.3864C143.175 9.95455 143.996 9.73864 144.974 9.73864C145.877 9.73864 146.664 9.93182 147.335 10.3182C148.011 10.7045 148.533 11.2642 148.903 11.9972C149.278 12.7301 149.462 13.6193 149.457 14.6648V23H146.371V15.142C146.371 14.267 146.144 13.5824 145.69 13.0881C145.241 12.5937 144.619 12.3466 143.823 12.3466C143.283 12.3466 142.803 12.4659 142.383 12.7045C141.968 12.9375 141.641 13.2756 141.403 13.7188C141.17 14.1619 141.053 14.6989 141.053 15.3295ZM157.451 23.2301C156.423 23.2301 155.502 22.9659 154.69 22.4375C153.877 21.9091 153.235 21.142 152.763 20.1364C152.292 19.1307 152.056 17.9091 152.056 16.4716C152.056 15.017 152.295 13.7898 152.772 12.7898C153.255 11.7841 153.906 11.0256 154.724 10.5142C155.542 9.99716 156.454 9.73864 157.46 9.73864C158.227 9.73864 158.857 9.86932 159.352 10.1307C159.846 10.3864 160.238 10.696 160.528 11.0597C160.817 11.4176 161.042 11.7557 161.201 12.0739H161.329V5.54545H164.423V23H161.388V20.9375H161.201C161.042 21.2557 160.812 21.5937 160.511 21.9517C160.21 22.304 159.812 22.6051 159.317 22.8551C158.823 23.1051 158.201 23.2301 157.451 23.2301ZM158.312 20.6989C158.965 20.6989 159.522 20.5227 159.982 20.1705C160.442 19.8125 160.792 19.3153 161.031 18.679C161.269 18.0426 161.388 17.3011 161.388 16.4545C161.388 15.608 161.269 14.8722 161.031 14.2472C160.798 13.6222 160.451 13.1364 159.991 12.7898C159.536 12.4432 158.977 12.2699 158.312 12.2699C157.624 12.2699 157.05 12.4489 156.59 12.8068C156.13 13.1648 155.783 13.6591 155.55 14.2898C155.317 14.9205 155.201 15.642 155.201 16.4545C155.201 17.2727 155.317 18.0028 155.55 18.6449C155.789 19.2812 156.138 19.7841 156.599 20.1534C157.065 20.517 157.636 20.6989 158.312 20.6989ZM173.506 23.2557C172.193 23.2557 171.06 22.983 170.105 22.4375C169.156 21.8864 168.426 21.108 167.915 20.1023C167.403 19.0909 167.148 17.9006 167.148 16.5312C167.148 15.1847 167.403 14.0028 167.915 12.9858C168.432 11.9631 169.153 11.1676 170.08 10.5994C171.006 10.0256 172.094 9.73864 173.344 9.73864C174.151 9.73864 174.912 9.86932 175.628 10.1307C176.349 10.3864 176.986 10.7841 177.537 11.3239C178.094 11.8636 178.531 12.5511 178.849 13.3864C179.168 14.2159 179.327 15.2045 179.327 16.3523V17.2983H168.597V15.2188H176.369C176.364 14.6278 176.236 14.1023 175.986 13.642C175.736 13.1761 175.386 12.8097 174.938 12.5426C174.494 12.2756 173.977 12.142 173.386 12.142C172.756 12.142 172.202 12.2955 171.724 12.6023C171.247 12.9034 170.875 13.3011 170.608 13.7955C170.347 14.2841 170.213 14.821 170.207 15.4062V17.2216C170.207 17.983 170.347 18.6364 170.625 19.1818C170.903 19.7216 171.293 20.1364 171.793 20.4261C172.293 20.7102 172.878 20.8523 173.548 20.8523C173.997 20.8523 174.403 20.7898 174.767 20.6648C175.131 20.5341 175.446 20.3438 175.713 20.0938C175.98 19.8438 176.182 19.5341 176.318 19.1648L179.199 19.4886C179.017 20.25 178.67 20.9148 178.159 21.483C177.653 22.0455 177.006 22.483 176.216 22.7955C175.426 23.1023 174.523 23.2557 173.506 23.2557ZM181.937 23V9.90909H184.928V12.0909H185.065C185.303 11.3352 185.712 10.7528 186.292 10.3438C186.877 9.92898 187.545 9.72159 188.295 9.72159C188.465 9.72159 188.656 9.73011 188.866 9.74716C189.082 9.75852 189.261 9.77841 189.403 9.80682V12.6449C189.272 12.5994 189.065 12.5597 188.781 12.5256C188.502 12.4858 188.232 12.4659 187.971 12.4659C187.408 12.4659 186.903 12.5881 186.454 12.8324C186.011 13.071 185.661 13.4034 185.406 13.8295C185.15 14.2557 185.022 14.7472 185.022 15.304V23H181.937ZM201.799 13.3693L198.987 13.6761C198.907 13.392 198.768 13.125 198.569 12.875C198.376 12.625 198.114 12.4233 197.785 12.2699C197.455 12.1165 197.052 12.0398 196.575 12.0398C195.933 12.0398 195.393 12.179 194.955 12.4574C194.523 12.7358 194.31 13.0966 194.316 13.5398C194.31 13.9205 194.45 14.2301 194.734 14.4688C195.023 14.7074 195.501 14.9034 196.165 15.0568L198.398 15.5341C199.637 15.8011 200.558 16.2244 201.16 16.804C201.768 17.3835 202.075 18.142 202.08 19.0795C202.075 19.9034 201.833 20.6307 201.356 21.2614C200.884 21.8864 200.228 22.375 199.387 22.7273C198.546 23.0795 197.58 23.2557 196.489 23.2557C194.887 23.2557 193.597 22.9205 192.62 22.25C191.643 21.5739 191.06 20.6335 190.873 19.429L193.881 19.1392C194.018 19.7301 194.308 20.1761 194.751 20.4773C195.194 20.7784 195.771 20.929 196.481 20.929C197.214 20.929 197.802 20.7784 198.245 20.4773C198.694 20.1761 198.918 19.804 198.918 19.3608C198.918 18.9858 198.773 18.6761 198.484 18.4318C198.2 18.1875 197.756 18 197.154 17.8693L194.921 17.4006C193.665 17.1392 192.737 16.6989 192.134 16.0795C191.532 15.4545 191.234 14.6648 191.239 13.7102C191.234 12.9034 191.452 12.2045 191.896 11.6136C192.344 11.017 192.967 10.5568 193.762 10.233C194.563 9.90341 195.487 9.73864 196.532 9.73864C198.066 9.73864 199.273 10.0653 200.154 10.7188C201.04 11.3722 201.589 12.2557 201.799 13.3693ZM219.701 11.4347H216.513C216.423 10.9119 216.255 10.4489 216.011 10.0455C215.766 9.63636 215.462 9.28977 215.099 9.00568C214.735 8.72159 214.32 8.50852 213.854 8.36648C213.394 8.21875 212.897 8.14489 212.363 8.14489C211.414 8.14489 210.573 8.38352 209.84 8.86079C209.107 9.33239 208.533 10.0256 208.119 10.9403C207.704 11.8494 207.496 12.9602 207.496 14.2727C207.496 15.608 207.704 16.733 208.119 17.6477C208.539 18.5568 209.113 19.2443 209.84 19.7102C210.573 20.1705 211.411 20.4006 212.354 20.4006C212.877 20.4006 213.366 20.3324 213.82 20.196C214.281 20.054 214.692 19.8466 215.056 19.5739C215.425 19.3011 215.735 18.9659 215.985 18.5682C216.241 18.1705 216.417 17.7159 216.513 17.2045L219.701 17.2216C219.582 18.0511 219.323 18.8295 218.925 19.5568C218.533 20.2841 218.019 20.9261 217.383 21.483C216.746 22.0341 216.002 22.4659 215.15 22.7784C214.298 23.0852 213.352 23.2386 212.312 23.2386C210.778 23.2386 209.408 22.8835 208.204 22.1733C206.999 21.4631 206.05 20.4375 205.357 19.0966C204.664 17.7557 204.317 16.1477 204.317 14.2727C204.317 12.392 204.667 10.7841 205.366 9.44886C206.065 8.10795 207.016 7.08239 208.221 6.37216C209.425 5.66193 210.789 5.30682 212.312 5.30682C213.283 5.30682 214.187 5.44318 215.022 5.71591C215.857 5.98864 216.602 6.3892 217.255 6.91761C217.908 7.44034 218.445 8.08239 218.866 8.84375C219.292 9.59943 219.57 10.4631 219.701 11.4347ZM222.46 23V9.90909H225.452V12.0909H225.588C225.827 11.3352 226.236 10.7528 226.815 10.3438C227.401 9.92898 228.068 9.72159 228.818 9.72159C228.989 9.72159 229.179 9.73011 229.389 9.74716C229.605 9.75852 229.784 9.77841 229.926 9.80682V12.6449C229.795 12.5994 229.588 12.5597 229.304 12.5256C229.026 12.4858 228.756 12.4659 228.494 12.4659C227.932 12.4659 227.426 12.5881 226.977 12.8324C226.534 13.071 226.185 13.4034 225.929 13.8295C225.673 14.2557 225.545 14.7472 225.545 15.304V23H222.46ZM237.232 23.2557C235.92 23.2557 234.786 22.983 233.832 22.4375C232.883 21.8864 232.153 21.108 231.641 20.1023C231.13 19.0909 230.874 17.9006 230.874 16.5312C230.874 15.1847 231.13 14.0028 231.641 12.9858C232.158 11.9631 232.88 11.1676 233.806 10.5994C234.732 10.0256 235.82 9.73864 237.07 9.73864C237.877 9.73864 238.638 9.86932 239.354 10.1307C240.076 10.3864 240.712 10.7841 241.263 11.3239C241.82 11.8636 242.258 12.5511 242.576 13.3864C242.894 14.2159 243.053 15.2045 243.053 16.3523V17.2983H232.323V15.2188H240.096C240.09 14.6278 239.962 14.1023 239.712 13.642C239.462 13.1761 239.113 12.8097 238.664 12.5426C238.221 12.2756 237.704 12.142 237.113 12.142C236.482 12.142 235.928 12.2955 235.451 12.6023C234.974 12.9034 234.602 13.3011 234.335 13.7955C234.073 14.2841 233.94 14.821 233.934 15.4062V17.2216C233.934 17.983 234.073 18.6364 234.352 19.1818C234.63 19.7216 235.019 20.1364 235.519 20.4261C236.019 20.7102 236.604 20.8523 237.275 20.8523C237.724 20.8523 238.13 20.7898 238.494 20.6648C238.857 20.5341 239.173 20.3438 239.44 20.0938C239.707 19.8438 239.908 19.5341 240.045 19.1648L242.925 19.4886C242.744 20.25 242.397 20.9148 241.886 21.483C241.38 22.0455 240.732 22.483 239.942 22.7955C239.153 23.1023 238.249 23.2557 237.232 23.2557ZM249.43 23.2642C248.601 23.2642 247.854 23.1165 247.189 22.821C246.53 22.5199 246.007 22.0767 245.621 21.4915C245.24 20.9062 245.05 20.1847 245.05 19.3267C245.05 18.5881 245.186 17.9773 245.459 17.4943C245.732 17.0114 246.104 16.625 246.575 16.3352C247.047 16.0455 247.578 15.8267 248.169 15.679C248.766 15.5256 249.382 15.4148 250.018 15.3466C250.786 15.267 251.408 15.196 251.885 15.1335C252.362 15.0653 252.709 14.9631 252.925 14.8267C253.146 14.6847 253.257 14.4659 253.257 14.1705V14.1193C253.257 13.4773 253.067 12.9801 252.686 12.6278C252.305 12.2756 251.757 12.0994 251.041 12.0994C250.286 12.0994 249.686 12.2642 249.243 12.5938C248.805 12.9233 248.51 13.3125 248.357 13.7614L245.476 13.3523C245.703 12.5568 246.078 11.892 246.601 11.358C247.124 10.8182 247.763 10.4148 248.518 10.1477C249.274 9.875 250.109 9.73864 251.024 9.73864C251.655 9.73864 252.283 9.8125 252.908 9.96023C253.533 10.108 254.104 10.3523 254.621 10.6932C255.138 11.0284 255.553 11.4858 255.865 12.0653C256.183 12.6449 256.342 13.3693 256.342 14.2386V23H253.376V21.2017H253.274C253.087 21.5653 252.822 21.9062 252.482 22.2244C252.146 22.5369 251.723 22.7898 251.212 22.983C250.706 23.1705 250.112 23.2642 249.43 23.2642ZM250.232 20.9972C250.851 20.9972 251.388 20.875 251.842 20.6307C252.297 20.3807 252.646 20.0511 252.891 19.642C253.141 19.233 253.266 18.7869 253.266 18.304V16.7614C253.169 16.8409 253.004 16.9148 252.771 16.983C252.544 17.0511 252.288 17.1108 252.004 17.1619C251.72 17.2131 251.439 17.2585 251.161 17.2983C250.882 17.3381 250.641 17.3722 250.436 17.4006C249.976 17.4631 249.564 17.5653 249.2 17.7074C248.837 17.8494 248.55 18.0483 248.339 18.304C248.129 18.554 248.024 18.8778 248.024 19.2756C248.024 19.8438 248.232 20.2727 248.646 20.5625C249.061 20.8523 249.589 20.9972 250.232 20.9972ZM265.982 9.90909V12.2955H258.456V9.90909H265.982ZM260.314 6.77273H263.399V19.0625C263.399 19.4773 263.462 19.7955 263.587 20.017C263.717 20.233 263.888 20.3807 264.098 20.4602C264.308 20.5398 264.541 20.5795 264.797 20.5795C264.99 20.5795 265.166 20.5653 265.325 20.5369C265.49 20.5085 265.615 20.483 265.7 20.4602L266.22 22.8722C266.055 22.929 265.82 22.9915 265.513 23.0597C265.212 23.1278 264.842 23.1676 264.405 23.179C263.632 23.2017 262.936 23.0852 262.317 22.8295C261.697 22.5682 261.206 22.1648 260.842 21.6193C260.484 21.0739 260.308 20.392 260.314 19.5739V6.77273ZM268.562 23V9.90909H271.647V23H268.562ZM270.113 8.05114C269.624 8.05114 269.204 7.8892 268.852 7.56534C268.499 7.23579 268.323 6.84091 268.323 6.38068C268.323 5.91477 268.499 5.51989 268.852 5.19602C269.204 4.86648 269.624 4.7017 270.113 4.7017C270.607 4.7017 271.028 4.86648 271.374 5.19602C271.727 5.51989 271.903 5.91477 271.903 6.38068C271.903 6.84091 271.727 7.23579 271.374 7.56534C271.028 7.8892 270.607 8.05114 270.113 8.05114ZM280.53 23.2557C279.251 23.2557 278.143 22.9744 277.206 22.4119C276.268 21.8494 275.541 21.0625 275.024 20.0511C274.513 19.0398 274.257 17.858 274.257 16.5057C274.257 15.1534 274.513 13.9687 275.024 12.9517C275.541 11.9347 276.268 11.1449 277.206 10.5824C278.143 10.0199 279.251 9.73864 280.53 9.73864C281.808 9.73864 282.916 10.0199 283.854 10.5824C284.791 11.1449 285.516 11.9347 286.027 12.9517C286.544 13.9687 286.803 15.1534 286.803 16.5057C286.803 17.858 286.544 19.0398 286.027 20.0511C285.516 21.0625 284.791 21.8494 283.854 22.4119C282.916 22.9744 281.808 23.2557 280.53 23.2557ZM280.547 20.7841C281.24 20.7841 281.82 20.5937 282.286 20.2131C282.751 19.8267 283.098 19.3097 283.325 18.6619C283.558 18.0142 283.675 17.2926 283.675 16.4972C283.675 15.696 283.558 14.9716 283.325 14.3239C283.098 13.6705 282.751 13.1506 282.286 12.7642C281.82 12.3778 281.24 12.1847 280.547 12.1847C279.837 12.1847 279.246 12.3778 278.774 12.7642C278.308 13.1506 277.959 13.6705 277.726 14.3239C277.499 14.9716 277.385 15.696 277.385 16.4972C277.385 17.2926 277.499 18.0142 277.726 18.6619C277.959 19.3097 278.308 19.8267 278.774 20.2131C279.246 20.5937 279.837 20.7841 280.547 20.7841ZM292.506 15.3295V23H289.421V9.90909H292.37V12.1335H292.523C292.825 11.4006 293.305 10.8182 293.964 10.3864C294.629 9.95455 295.45 9.73864 296.427 9.73864C297.33 9.73864 298.117 9.93182 298.788 10.3182C299.464 10.7045 299.987 11.2642 300.356 11.9972C300.731 12.7301 300.915 13.6193 300.91 14.6648V23H297.825V15.142C297.825 14.267 297.597 13.5824 297.143 13.0881C296.694 12.5937 296.072 12.3466 295.276 12.3466C294.737 12.3466 294.256 12.4659 293.836 12.7045C293.421 12.9375 293.094 13.2756 292.856 13.7188C292.623 14.1619 292.506 14.6989 292.506 15.3295Z" fill="#07E3ED"/>
<path fill-rule="evenodd" clip-rule="evenodd" d="M8.78722 5.69169L1.02064 17.3416C0.544778 18.0554 0.737665 19.0198 1.45145 19.4957C2.16524 19.9715 3.12966 19.7786 3.60552 19.0648L10.0797 9.35361L16.5538 19.0648C16.6104 19.1497 16.6747 19.2282 16.7468 19.3004C16.8188 19.3726 16.8972 19.4371 16.982 19.4938C17.0667 19.5506 17.1562 19.5986 17.2503 19.6377C17.3445 19.6768 17.4416 19.7064 17.5416 19.7264C17.6417 19.7464 17.7427 19.7564 17.8447 19.7565C17.9466 19.7566 18.0477 19.7468 18.1477 19.727C18.2478 19.7072 18.3449 19.6778 18.4392 19.6389C18.5335 19.6 18.623 19.5522 18.7079 19.4957C18.8802 19.3808 19.0238 19.2372 19.1387 19.0648L25.6129 9.35361L32.087 19.0648C32.5629 19.7786 33.5273 19.9715 34.2411 19.4957C34.9549 19.0198 35.1478 18.0554 34.6719 17.3416L26.9053 5.69169C26.7904 5.51937 26.6468 5.37577 26.4745 5.26088C26.3896 5.20431 26.3001 5.15655 26.2058 5.11762C26.1115 5.07869 26.0144 5.04932 25.9143 5.02953C25.8143 5.00974 25.7132 4.9999 25.6112 5C25.5093 5.00011 25.4083 5.01016 25.3082 5.03017C25.2082 5.05017 25.1111 5.07973 25.0169 5.11886C24.9227 5.15799 24.8333 5.20593 24.7486 5.26269C24.6638 5.31944 24.5854 5.38391 24.5134 5.45611C24.4413 5.5283 24.377 5.60683 24.3204 5.69169L17.8463 15.4029L11.3721 5.69169C11.2572 5.51937 11.1136 5.37577 10.9413 5.26088C10.899 5.23266 10.8554 5.20658 10.8105 5.18265C10.7656 5.15872 10.7196 5.13704 10.6726 5.11762C10.6256 5.0982 10.5777 5.08113 10.529 5.06642C10.4803 5.0517 10.431 5.0394 10.3811 5.02953C10.3312 5.01966 10.2809 5.01225 10.2303 5.00732C10.1797 5.00239 10.1289 4.99995 10.0781 5C10.0272 5.00005 9.97642 5.0026 9.9258 5.00764C9.87518 5.01268 9.82493 5.02019 9.77504 5.03017C9.72515 5.04014 9.67588 5.05254 9.62723 5.06736C9.57855 5.08218 9.53073 5.09935 9.48375 5.11886C9.43677 5.13838 9.39086 5.16015 9.34601 5.18418C9.30117 5.20821 9.25762 5.23438 9.21536 5.26269C9.17307 5.29099 9.13228 5.3213 9.09299 5.35362C9.0537 5.38593 9.0161 5.4201 8.98018 5.45611C8.94423 5.49212 8.91014 5.5298 8.87792 5.56916C8.84569 5.60852 8.81546 5.64937 8.78722 5.69169Z" fill="white"/>
<path fill-rule="evenodd" clip-rule="evenodd" d="M30.3578 9.14418C29.644 8.66832 28.6796 8.8612 28.2037 9.57499L21.7296 19.2862L15.2554 9.57499C15.1405 9.40267 14.9969 9.25906 14.8246 9.14418C14.7823 9.11596 14.7387 9.08988 14.6938 9.06595C14.6489 9.04201 14.6029 9.02034 14.5559 9.00092C14.5089 8.9815 14.461 8.96443 14.4123 8.94971C14.3636 8.935 14.3143 8.9227 14.2644 8.91283C14.2145 8.90295 14.1642 8.89555 14.1136 8.89062C14.063 8.88569 14.0122 8.88324 13.9614 8.8833C13.9105 8.88335 13.8597 8.8859 13.8091 8.89094C13.7585 8.89598 13.7082 8.90348 13.6583 8.91346C13.6084 8.92344 13.5592 8.93584 13.5105 8.95066C13.4619 8.96548 13.414 8.98264 13.367 9.00216C13.3201 9.02168 13.2742 9.04345 13.2293 9.06748C13.1845 9.09151 13.1409 9.11768 13.0987 9.14598C13.0564 9.17429 13.0156 9.2046 12.9763 9.23692C12.937 9.26923 12.8994 9.30339 12.8635 9.3394C12.8275 9.37542 12.7934 9.4131 12.7612 9.45246C12.729 9.49182 12.6988 9.53266 12.6705 9.57499L4.90394 21.2249C4.42808 21.9387 4.62096 22.9031 5.33475 23.379C6.04854 23.8548 7.01296 23.6619 7.48881 22.9481L13.963 13.2369L20.4371 22.9481C20.4937 23.033 20.558 23.1115 20.6301 23.1837C20.7021 23.2559 20.7805 23.3204 20.8653 23.3771C20.95 23.4339 21.0394 23.4819 21.1336 23.521C21.2278 23.5601 21.3249 23.5897 21.4249 23.6097C21.525 23.6297 21.626 23.6397 21.7279 23.6398C21.8299 23.6399 21.931 23.6301 22.031 23.6103C22.1311 23.5905 22.2282 23.5611 22.3225 23.5222C22.4168 23.4833 22.5063 23.4355 22.5912 23.379C22.7635 23.2641 22.9071 23.1205 23.022 22.9481L30.7886 11.2982C31.2645 10.5845 31.0716 9.62004 30.3578 9.14418Z" fill="#07E3ED" fill-opacity="0.819608"/>
</svg>
